<?xml version="1.0" encoding="UTF-8"?>
<svg xmlns="http://www.w3.org/2000/svg" xmlns:xlink="http://www.w3.org/1999/xlink" viewBox="0 0 500 500">
  <defs>
    <style>
      .cls-1 {
        fill: url(#New_Pattern_3-2);
      }

      .cls-1, .cls-2, .cls-3, .cls-4, .cls-5, .cls-6, .cls-7, .cls-8, .cls-9, .cls-10, .cls-11, .cls-12, .cls-13, .cls-14, .cls-15, .cls-16, .cls-17, .cls-18, .cls-19, .cls-20, .cls-21, .cls-22, .cls-23, .cls-24, .cls-25, .cls-26, .cls-27, .cls-28, .cls-29, .cls-30, .cls-31, .cls-32, .cls-33, .cls-34, .cls-35, .cls-36, .cls-37, .cls-38, .cls-39, .cls-40, .cls-41, .cls-42, .cls-43 {
        stroke-width: 0px;
      }

      .cls-2 {
        fill: url(#linear-gradient);
      }

      .cls-3 {
        fill: url(#New_Pattern_3-7);
      }

      .cls-4 {
        fill: #fbd15b;
      }

      .cls-5 {
        fill: #c3d3dd;
      }

      .cls-6 {
        fill: url(#linear-gradient-6);
      }

      .cls-7 {
        fill: #5fa4d3;
      }

      .cls-8 {
        fill: url(#New_Pattern_3-6);
      }

      .cls-44 {
        isolation: isolate;
      }

      .cls-9 {
        fill: #e5b53e;
      }

      .cls-10 {
        fill: #06315b;
      }

      .cls-11 {
        fill: #1d262d;
      }

      .cls-12 {
        fill: url(#linear-gradient-5);
      }

      .cls-13 {
        fill: #bacdd6;
      }

      .cls-14 {
        fill: #03254e;
      }

      .cls-15 {
        fill: #459bd6;
      }

      .cls-16, .cls-45 {
        fill: none;
      }

      .cls-45 {
        stroke: #c3d3dd;
        stroke-dasharray: 0 0 3 3;
        stroke-linecap: round;
        stroke-linejoin: round;
      }

      .cls-17 {
        fill-rule: evenodd;
      }

      .cls-17, .cls-39 {
        fill: #11477c;
      }

      .cls-18 {
        fill: #ffc8af;
      }

      .cls-19 {
        fill: url(#New_Pattern_3-4);
      }

      .cls-46 {
        font-family: Poppins-SemiBold, Poppins;
        font-weight: 600;
      }

      .cls-46, .cls-36 {
        fill: #f9fbfc;
      }

      .cls-46, .cls-47 {
        font-size: 3.82px;
        letter-spacing: .1em;
      }

      .cls-20 {
        fill: #0a3b63;
      }

      .cls-21 {
        fill: #bd884c;
      }

      .cls-22 {
        fill: url(#linear-gradient-2);
      }

      .cls-23 {
        fill: #d4e2e8;
      }

      .cls-24 {
        fill: #f0f5f7;
      }

      .cls-48 {
        mix-blend-mode: screen;
      }

      .cls-25 {
        fill: #f4b298;
      }

      .cls-26 {
        fill: url(#linear-gradient-3);
      }

      .cls-27 {
        fill: url(#New_Pattern_3);
      }

      .cls-28 {
        fill: #fd8;
      }

      .cls-29 {
        fill: #73bde5;
      }

      .cls-30 {
        fill: #2672b2;
      }

      .cls-31 {
        fill: #d1d3d4;
        mix-blend-mode: multiply;
      }

      .cls-32 {
        fill: url(#New_Pattern_3-3);
      }

      .cls-33 {
        fill: #c9992d;
      }

      .cls-34 {
        fill: #414042;
      }

      .cls-35 {
        fill: #e0bd96;
      }

      .cls-37 {
        fill: url(#linear-gradient-4);
      }

      .cls-38 {
        fill: #845e40;
      }

      .cls-40 {
        fill: #dce8ef;
      }

      .cls-41 {
        fill: #a5b7c6;
      }

      .cls-47 {
        fill: #758d9e;
        font-family: Poppins-Regular, Poppins;
      }

      .cls-42 {
        fill: url(#New_Pattern_3-5);
      }

      .cls-43 {
        fill: #e6d5b9;
      }
    </style>
    <linearGradient id="linear-gradient" x1="120.85" y1="116.95" x2="141.53" y2="152.77" gradientUnits="userSpaceOnUse">
      <stop offset="0" stop-color="#4cb8ca"/>
      <stop offset="1" stop-color="#2672b2"/>
    </linearGradient>
    <linearGradient id="linear-gradient-2" x1="188.73" y1="143.04" x2="329.42" y2="386.72" xlink:href="#linear-gradient"/>
    <pattern id="New_Pattern_3" data-name="New Pattern 3" x="0" y="0" width="22.21" height="19.86" patternTransform="translate(2043.62 -2809.19) rotate(-18)" patternUnits="userSpaceOnUse" viewBox="0 0 22.21 19.86">
      <g>
        <rect class="cls-16" y="0" width="22.21" height="19.86"/>
        <g>
          <g>
            <rect class="cls-24" x="0" y="13.24" width="22.21" height="3.31"/>
            <rect class="cls-39" x="0" y="13.24" width="22.21" height="3.31"/>
          </g>
          <rect class="cls-40" x="0" y="16.55" width="22.21" height="3.31"/>
        </g>
        <g>
          <g>
            <rect class="cls-24" x="0" y="6.62" width="22.21" height="3.31"/>
            <rect class="cls-39" x="0" y="6.62" width="22.21" height="3.31"/>
          </g>
          <rect class="cls-40" x="0" y="9.93" width="22.21" height="3.31"/>
        </g>
        <g>
          <g>
            <rect class="cls-24" x="0" y="0" width="22.21" height="3.31"/>
            <rect class="cls-39" x="0" y="0" width="22.21" height="3.31"/>
          </g>
          <rect class="cls-40" x="0" y="3.31" width="22.21" height="3.31"/>
        </g>
      </g>
    </pattern>
    <pattern id="New_Pattern_3-2" data-name="New Pattern 3" patternTransform="translate(-1291.61 898.1) rotate(9)" xlink:href="#New_Pattern_3"/>
    <pattern id="New_Pattern_3-3" data-name="New Pattern 3" patternTransform="translate(-2255.92 1488.49) rotate(15)" xlink:href="#New_Pattern_3"/>
    <linearGradient id="linear-gradient-3" x1="269.8" y1="57.59" x2="330.74" y2="163.14" xlink:href="#linear-gradient"/>
    <linearGradient id="linear-gradient-4" x1="239.49" y1="113.4" x2="361.04" y2="113.4" xlink:href="#linear-gradient"/>
    <pattern id="New_Pattern_3-4" data-name="New Pattern 3" patternTransform="translate(-3435.64 2043.07) rotate(22)" xlink:href="#New_Pattern_3"/>
    <pattern id="New_Pattern_3-5" data-name="New Pattern 3" patternTransform="translate(-1 -150)" xlink:href="#New_Pattern_3"/>
    <linearGradient id="linear-gradient-5" x1="74.26" y1="277.37" x2="86.09" y2="297.86" xlink:href="#linear-gradient"/>
    <linearGradient id="linear-gradient-6" x1="52.15" y1="259.3" x2="186.3" y2="259.3" xlink:href="#linear-gradient"/>
    <pattern id="New_Pattern_3-6" data-name="New Pattern 3" patternTransform="translate(2290.59 -3287.41) rotate(-21)" xlink:href="#New_Pattern_3"/>
    <pattern id="New_Pattern_3-7" data-name="New Pattern 3" patternTransform="translate(8.62 -154.03)" xlink:href="#New_Pattern_3"/>
  </defs>
  <g class="cls-44">
    <g id="OBJECTS">
      <g>
        <g>
          <rect class="cls-2" x="109.38" y="122.45" width="43.63" height="24.83" rx="2.67" ry="2.67"/>
          <g class="cls-48">
            <rect class="cls-39" x="114" y="133.69" width="17.68" height=".99"/>
            <rect class="cls-39" x="114" y="135.88" width="17.68" height=".99"/>
            <rect class="cls-39" x="114" y="138.07" width="17.68" height=".99"/>
            <rect class="cls-39" x="114" y="140.26" width="11.3" height=".99"/>
          </g>
          <rect class="cls-14" x="109.38" y="125.88" width="43.63" height="4.71"/>
          <g class="cls-48">
            <path class="cls-17" d="M147.11,137.5h1.53c.2.46.33.96.35,1.48h-1.75c0-.56-.05-1.05-.12-1.48ZM146.44,135.4c.88.34,1.6.99,2.05,1.8h-1.43c-.16-.83-.41-1.42-.62-1.8ZM145.16,137.2v-2.07c.32.01.62.06.92.15.22.37.51,1,.69,1.92h-1.6ZM143.21,140.76c-.07-.43-.12-.92-.12-1.48h1.77v1.48h-1.65ZM143.21,137.5h1.65v1.48h-1.78c0-.56.05-1.05.12-1.48ZM143.95,135.27c.29-.08.6-.13.91-.14v2.07h-1.6c.18-.93.47-1.56.69-1.93ZM141.49,137.2c.46-.83,1.2-1.48,2.1-1.81-.21.38-.46.98-.63,1.81h-1.47ZM142.79,138.98h-1.79c.02-.53.14-1.03.34-1.48h1.57c-.07.43-.12.93-.12,1.48ZM142.91,140.76h-1.56c-.21-.46-.34-.95-.36-1.48h1.8c0,.56.06,1.05.12,1.48ZM142.96,141.05c.17.85.42,1.44.63,1.82-.9-.34-1.64-.99-2.1-1.82h1.47ZM144.86,141.05v2.07c-.31,0-.61-.06-.9-.14-.22-.37-.51-.99-.7-1.93h1.6ZM146.75,141.05c-.18.93-.47,1.56-.69,1.93-.29.08-.59.12-.91.14v-2.06h1.6ZM145.16,139.27h1.77c0,.56-.05,1.05-.12,1.48h-1.65v-1.48ZM146.93,138.98h-1.78v-1.48h1.65c.07.43.12.93.12,1.48ZM147.23,139.27h1.75c-.02.53-.15,1.03-.35,1.48h-1.52c.07-.43.12-.92.13-1.48ZM148.48,141.05c-.45.82-1.17,1.46-2.05,1.8.21-.38.46-.97.62-1.8h1.43Z"/>
          </g>
        </g>
        <path class="cls-40" d="M409,420.1H91c-2.46,0-4.45-1.99-4.45-4.45h0c0-2.46,1.99-4.45,4.45-4.45h318c2.46,0,4.45,1.99,4.45,4.45h0c0,2.46-1.99,4.45-4.45,4.45Z"/>
        <path class="cls-40" d="M177.1,428.79h-102.9c-1.87,0-3.38-1.51-3.38-3.38h0c0-1.87,1.51-3.38,3.38-3.38h102.9c1.87,0,3.38,1.51,3.38,3.38h0c0,1.87-1.51,3.38-3.38,3.38Z"/>
        <rect class="cls-40" x="333.38" y="419.83" width="92.62" height="6.76" rx="3.11" ry="3.11"/>
        <g>
          <path class="cls-14" d="M415.2,184.7v180.47c0,5.96-4.84,10.8-10.8,10.8H113.72c-5.96,0-10.77-4.84-10.77-10.8v-180.47c0-5.99,4.81-10.8,10.77-10.8h290.68c5.96,0,10.8,4.81,10.8,10.8Z"/>
          <path class="cls-5" d="M415.2,356.04v9.13c0,5.96-4.84,10.8-10.8,10.8H113.72c-5.96,0-10.77-4.84-10.77-10.8v-9.13h312.24Z"/>
          <rect class="cls-22" x="114.49" y="185.91" width="289.18" height="157.94"/>
          <rect class="cls-41" x="222.2" y="375.97" width="73.75" height="33.49"/>
          <rect class="cls-5" x="200.88" y="409.47" width="116.4" height="6.64"/>
        </g>
        <g>
          <g>
            <g>
              <path class="cls-15" d="M373.36,364.37v49.37h-80.18v-49.37h80.18ZM369.45,410.48v-42.86h-72.37v42.86h72.37Z"/>
              <polygon class="cls-15" points="369.45 368.62 369.45 410.48 297.08 410.48 297.08 409.48 297.92 409.48 301.53 409.48 365 409.48 368.62 409.48 368.62 405.87 368.62 372.24 368.62 368.62 369.45 368.62"/>
              <polygon class="cls-15" points="369.45 367.62 369.45 368.62 368.62 368.62 365 368.62 301.53 368.62 297.92 368.62 297.92 372.24 297.92 405.87 297.92 409.48 297.08 409.48 297.08 367.62 369.45 367.62"/>
              <path class="cls-15" d="M368.62,405.87v3.61h-3.62c0-2,1.62-3.61,3.62-3.61Z"/>
              <path class="cls-29" d="M368.62,372.24v33.63c-2,0-3.62,1.62-3.62,3.61h-63.47c0-2-1.62-3.61-3.61-3.61v-33.63c2,0,3.61-1.62,3.61-3.62h63.47c0,2,1.62,3.62,3.62,3.62ZM359.46,389.05c0-2.46-1.23-4.46-2.75-4.46s-2.76,1.99-2.76,4.46,1.23,4.46,2.76,4.46,2.75-2,2.75-4.46ZM350.63,389.05c0-7.49-7.77-13.55-17.36-13.55s-17.36,6.07-17.36,13.55,7.77,13.56,17.36,13.56,17.36-6.07,17.36-13.56ZM312.59,389.05c0-2.46-1.24-4.46-2.76-4.46s-2.76,1.99-2.76,4.46,1.23,4.46,2.76,4.46,2.76-2,2.76-4.46Z"/>
              <path class="cls-15" d="M368.62,368.62v3.62c-2,0-3.62-1.62-3.62-3.62h3.62Z"/>
              <path class="cls-15" d="M356.7,384.6c1.52,0,2.75,1.99,2.75,4.46s-1.23,4.46-2.75,4.46-2.76-2-2.76-4.46,1.23-4.46,2.76-4.46Z"/>
              <path class="cls-15" d="M333.27,375.5c9.59,0,17.36,6.07,17.36,13.55s-7.77,13.56-17.36,13.56-17.36-6.07-17.36-13.56,7.77-13.55,17.36-13.55Z"/>
              <path class="cls-15" d="M309.83,384.6c1.52,0,2.76,1.99,2.76,4.46s-1.24,4.46-2.76,4.46-2.76-2-2.76-4.46,1.23-4.46,2.76-4.46Z"/>
              <path class="cls-15" d="M297.92,368.62h3.61c0,2-1.62,3.62-3.61,3.62v-3.62Z"/>
              <path class="cls-15" d="M301.53,409.48h-3.61v-3.61c2,0,3.61,1.62,3.61,3.61Z"/>
            </g>
            <path class="cls-29" d="M335.71,382.33c1.72.65,2.54,2.12,2.54,4.2v.32h-2.14c0-1.16-.29-2-.88-2.5l-.92,3.85c2.69.42,4.1,1.47,4.1,3.7v.17c0,2.54-1.83,4.1-5.02,4.1-.34,0-.65-.02-.97-.04l-.57,2.4h-1.74l.67-2.8c-1.74-.71-2.65-2.19-2.65-4.14v-.13h2.14c0,1.01.34,1.79.97,2.27l.97-4.06c-2.77-.46-3.93-1.62-3.93-3.59v-.17c0-2.48,2-3.97,4.98-3.97.27,0,.55.02.8.04l.57-2.38h1.74l-.65,2.73ZM332.62,387.94l.99-4.16c-.11-.02-.23-.02-.34-.02h-.08c-1.53,0-2.73.74-2.73,2.02v.11c0,1.07.55,1.74,2.17,2.06ZM336.2,392.16v-.11c0-1.2-.71-1.83-2.31-2.14l-1.05,4.41c.17.02.34.02.5.02h.08c1.64,0,2.77-.8,2.77-2.19Z"/>
          </g>
          <g>
            <g>
              <path class="cls-15" d="M379.91,362.17v49.37h-80.18v-49.37h80.18ZM376,408.29v-42.86h-72.37v42.86h72.37Z"/>
              <polygon class="cls-15" points="376 366.43 376 408.29 303.63 408.29 303.63 407.29 304.46 407.29 308.08 407.29 371.55 407.29 375.17 407.29 375.17 403.68 375.17 370.04 375.17 366.43 376 366.43"/>
              <polygon class="cls-15" points="376 365.43 376 366.43 375.17 366.43 371.55 366.43 308.08 366.43 304.46 366.43 304.46 370.04 304.46 403.68 304.46 407.29 303.63 407.29 303.63 365.43 376 365.43"/>
              <path class="cls-15" d="M375.17,403.68v3.61h-3.62c0-2,1.62-3.61,3.62-3.61Z"/>
              <path class="cls-29" d="M375.17,370.04v33.63c-2,0-3.62,1.62-3.62,3.61h-63.47c0-2-1.62-3.61-3.61-3.61v-33.63c2,0,3.61-1.62,3.61-3.62h63.47c0,2,1.62,3.62,3.62,3.62ZM366,386.86c0-2.46-1.23-4.46-2.75-4.46s-2.76,1.99-2.76,4.46,1.23,4.46,2.76,4.46,2.75-2,2.75-4.46ZM357.18,386.86c0-7.49-7.77-13.55-17.36-13.55s-17.36,6.07-17.36,13.55,7.77,13.56,17.36,13.56,17.36-6.07,17.36-13.56ZM319.13,386.86c0-2.46-1.23-4.46-2.76-4.46s-2.76,1.99-2.76,4.46,1.24,4.46,2.76,4.46,2.76-2,2.76-4.46Z"/>
              <path class="cls-15" d="M375.17,366.43v3.62c-2,0-3.62-1.62-3.62-3.62h3.62Z"/>
              <path class="cls-15" d="M363.25,382.4c1.52,0,2.75,1.99,2.75,4.46s-1.23,4.46-2.75,4.46-2.76-2-2.76-4.46,1.23-4.46,2.76-4.46Z"/>
              <path class="cls-15" d="M339.81,373.31c9.59,0,17.36,6.07,17.36,13.55s-7.77,13.56-17.36,13.56-17.36-6.07-17.36-13.56,7.77-13.55,17.36-13.55Z"/>
              <path class="cls-15" d="M316.38,382.4c1.52,0,2.76,1.99,2.76,4.46s-1.23,4.46-2.76,4.46-2.76-2-2.76-4.46,1.24-4.46,2.76-4.46Z"/>
              <path class="cls-15" d="M304.46,366.43h3.61c0,2-1.62,3.62-3.61,3.62v-3.62Z"/>
              <path class="cls-15" d="M308.08,407.29h-3.61v-3.61c2,0,3.61,1.62,3.61,3.61Z"/>
            </g>
            <path class="cls-29" d="M342.26,380.13c1.72.65,2.54,2.12,2.54,4.2v.32h-2.14c0-1.16-.29-2-.88-2.5l-.92,3.85c2.69.42,4.1,1.47,4.1,3.7v.17c0,2.54-1.83,4.1-5.02,4.1-.34,0-.65-.02-.97-.04l-.57,2.4h-1.74l.67-2.8c-1.74-.71-2.65-2.19-2.65-4.14v-.13h2.14c0,1.01.34,1.79.97,2.27l.97-4.06c-2.77-.46-3.93-1.62-3.93-3.59v-.17c0-2.48,2-3.97,4.98-3.97.27,0,.55.02.8.04l.57-2.38h1.74l-.65,2.73ZM339.17,385.74l.99-4.16c-.11-.02-.23-.02-.34-.02h-.08c-1.53,0-2.73.74-2.73,2.02v.11c0,1.07.55,1.74,2.17,2.06ZM342.75,389.97v-.11c0-1.2-.71-1.83-2.31-2.14l-1.05,4.41c.17.02.34.02.5.02h.08c1.64,0,2.77-.8,2.77-2.19Z"/>
          </g>
        </g>
        <g>
          <path class="cls-43" d="M224.18,173.77c.73-3.23-16.83-9.03-24.47-10.91-7.64-1.88-14.01-1.93-14.9,2.02-.89,3.95,4.88,6.64,12.58,8.22,7.7,1.59,26.05,3.9,26.78.67Z"/>
          <path class="cls-43" d="M221.03,182.4c1.02-3.15-15.94-10.52-23.37-13.09-7.43-2.57-13.77-3.2-15.02.65-1.25,3.85,4.25,7.06,11.78,9.34,7.53,2.28,25.58,6.26,26.61,3.11Z"/>
          <g>
            <path class="cls-43" d="M220.07,214.79l-.14,2.94c0,.42.34.76.76.76h7.93c.72,0,1.03-.91.45-1.34-1.2-.89-2.87-1.93-4.42-2.21-.14-.03-1.27-24.86-2.46-24.87-1.09-.01-2.12,24.73-2.12,24.73Z"/>
            <path class="cls-43" d="M222.02,215.86c2.94,0,3.75-25.97,3.75-31.8s-.45-12-3.75-12-3.75,6.16-3.75,12,.81,31.8,3.75,31.8Z"/>
            <path class="cls-14" d="M219.93,215.34v2.76c0,.28.23.5.5.5h8.88c.78,0,1.11-.98.49-1.45-1.29-.96-3.36-1.92-4.89-2.66-.36.32-.91,1.31-1.55,1.43-.63.12-3.43-.58-3.43-.58Z"/>
          </g>
          <g>
            <path class="cls-43" d="M213.23,222.69v2.78c0,.26.59,1.34,1.15,1.57,2,.85,5.83.35,5.98-.35.15-.69-.92-2.2-1.78-3.28,0,0,0,0,0,0-.55-.69-1.02-1.2-1.02-1.2,0,0-1.08-24.11-2.21-24.07-1.24.04-2.13,24.56-2.13,24.56Z"/>
            <path class="cls-43" d="M215.18,223.78c2.93.27,5.62-25.54,6.15-31.35.53-5.81.65-11.99-2.64-12.29-3.28-.3-4.29,5.79-4.83,11.61-.53,5.81-1.61,31.77,1.31,32.04Z"/>
            <path class="cls-14" d="M213.23,223.06v2.41c0,.26.59,1.34,1.15,1.57,2,.85,5.83.35,5.98-.35.15-.69-.92-2.2-1.78-3.28,0,0,0,0,0,0-.41-.35-2.52-.16-2.87.01-.36.17-1.18.68-1.35.65-.18-.03-1.13-1.02-1.13-1.02Z"/>
          </g>
          <g>
            <path class="cls-18" d="M213.6,157.1c2.28-.64-.23-14.23-1.72-19.92-1.49-5.69-3.69-9.9-6.47-9.12-2.78.79-2.45,5.53-.75,11.15,1.7,5.63,6.66,18.52,8.94,17.88Z"/>
            <path class="cls-18" d="M216.83,168.36c1.52-.43-.15-9.52-1.15-13.32-1-3.8-2.47-6.62-4.33-6.1-1.86.53-1.64,3.69-.5,7.46,1.14,3.76,4.46,12.39,5.98,11.96Z"/>
            <path class="cls-27" d="M207.97,128.51c-.85-.9-4.39-2.15-4.39-2.15l-.82.41-2.7,1.29-.56-4.32-6.92,1.67,8.98,6.76,3.77,10.12s1.24,4.1,1.9,6.01c1.19-.32,4.35-1.24,7.66-2.82-1.37-4.94-4.36-14.27-6.92-16.97Z"/>
            <path class="cls-18" d="M179.82,170l19.24-3.15,5.4-27.6,2.57-10.11-8.42-6.05-6.2-.59c-3.52-.33-6.77,1.95-7.63,5.39,0,0-4.32,18.3-4.8,24.54-.75,9.65-.15,17.57-.15,17.57Z"/>
            <path class="cls-20" d="M199.4,162.47s13.32,3.35,19.99,6.65c6.67,3.3,7.18,5.72,7.4,12.61.22,6.89-1.32,32.11-1.32,32.11,0,0-1.64,1.35-6.21.97,0,0-2.42-26-2.46-31.75-.04-5.75-28.5-9.68-28.5-9.68,0,0-3.89-6.89.59-9.16s10.51-1.74,10.51-1.74Z"/>
            <path class="cls-39" d="M180.24,171.36c.22,3.47,9.82,9.86,19.35,11.69s12.39,2.05,12.54,2.41c.15.37,0,36.87,0,36.87,0,0,3.05,1.83,6.14-.73,0,0,3.81-26.54,3.75-34.02-.07-7.48-2.1-8.72-4.6-9.97s-23.2-12.07-23.2-12.07l-13.98,5.81Z"/>
            <g>
              <path class="cls-13" d="M205.4,167.68s1.63.28,3.96.71l-2.01,5.43-16.72-3.75h-.02s14.79-2.39,14.79-2.39Z"/>
              <path class="cls-40" d="M230.5,161.05l-2.63,6.87-1.38,3.55-19.14,2.35,7.26-19.89c.24.01,18.73-.42,18.73-.42l-2.84,7.53Z"/>
              <polygon class="cls-23" points="226.49 171.47 226.43 172.71 223.21 173.15 210.86 174.88 207.28 175.39 207.36 173.82 226.49 171.47"/>
              <path class="cls-5" d="M207.36,173.82l-.08,1.57-16.56-4.12s-.07-1.2-.08-1.21l16.72,3.75Z"/>
            </g>
            <g>
              <path class="cls-18" d="M197.72,117.94l-1.97,5.4s1.19,2.67,4.54,3.64c1.81.53,2.47-.21,2.47-.21l.73-2.51-5.77-6.32Z"/>
              <g>
                <path class="cls-25" d="M207.49,114.13c.64.39.24,2.77.12,2.72-.12-.05-.02-2-.55-2.46-.53-.46.43-.26.43-.26Z"/>
                <path class="cls-25" d="M210.05,114.97c-.51.35-.71,2.13-.74,2.28s.78-1.98.78-1.98l-.04-.3Z"/>
                <g>
                  <path class="cls-34" d="M204.55,113.38l-.08.27s2.89.85,2.92.84c.03-.01.18-.23.1-.35-.41-.64-2.94-.76-2.94-.76Z"/>
                  <path class="cls-34" d="M212.13,115.57l-.08.29s-2.02-.6-2.03-.62c-.03,0,0-.28.1-.35.53-.35,2.02.68,2.02.68Z"/>
                  <path class="cls-34" d="M205.1,115.5c-.09.32.09.66.41.75.32.09.66-.09.75-.41.09-.32-.09-.66-.41-.75-.32-.09-.66.09-.75.41Z"/>
                  <path class="cls-34" d="M204.61,114.85c.35-.07.83-.13,1.31.01.48.14.86.44,1.11.69l-2.42-.7Z"/>
                  <path class="cls-34" d="M209.9,116.89c-.09.32.09.66.41.75.32.09.66-.09.75-.41.09-.32-.09-.66-.41-.75-.32-.09-.66.09-.75.41Z"/>
                  <path class="cls-34" d="M209.78,116.35c.26-.1.61-.19.94-.09.34.1.58.36.75.58l-1.69-.49Z"/>
                </g>
                <path class="cls-35" d="M207.91,119.5c-.58-.17-1.04-.36-1.09-.2-.05.16.37.49.95.66.58.17,1.11.12,1.16-.04.05-.16-.44-.25-1.02-.42Z"/>
                <path class="cls-25" d="M207.21,121.89c-.43-.12-.76-.26-.8-.14-.03.12.23.49.66.61.43.12.85-.04.89-.16.03-.12-.32-.18-.75-.31Z"/>
                <path class="cls-25" d="M209.46,121.51c.06.02.1.07.1.13,0,.08-.06.14-.14.14-.04,0-1.09,0-2.07-.29-.97-.28-1.9-.85-1.94-.87-.06-.04-.09-.13-.05-.19.04-.07.12-.09.19-.05,0,0,.93.57,1.87.84.94.27,1.98.28,1.99.28.01,0,.03,0,.04,0Z"/>
              </g>
              <path class="cls-18" d="M198.4,112.64c-.06.25-.11.48-.16.71-.02.08-.05.16-.08.24-1.34,3.98,0,9.05,3.72,10.77,0,0,.03.02.08.04.03,0,.08.03.13.05.8.35,3.75,1.47,5.2.57,1.71-1.05,3.62-3.34,4.14-5.12.52-1.79.32-2.31.53-3.03.16-.56.98-2.24,1.21-3,1.07-3.59-.31-7.86-4.61-9.11-6.45-1.87-9.08,3.5-10.15,7.88Z"/>
              <path class="cls-25" d="M204.24,125.15c-1.98-.48-4.03-3.14-4.5-4.22-.47-1.08-.2-3.41-.2-3.41,0,0-.6-.09-.87-.81,0,0-.23.99.06,1.43.28.44.51.58.53.85.01.26-.43,3.45.94,4.78,1.37,1.33,4.04,1.39,4.04,1.39Z"/>
              <path class="cls-11" d="M212.27,109.33s-1.87.9-4.4,2.34c-2.53,1.45-4.44,1.5-4.44,1.5l-2.62,1.91-1.21-.59-1.9,3.45s-.38-2.8-.07-5.85c.31-3.05,2.08-8.34,5.6-9.27,3.51-.93,10.37,3.72,11.09,4.97.72,1.25,1.81,3.26-1.39,6.7,0,0,.69-1.81.43-3.36-.26-1.55-1.1-1.79-1.1-1.79Z"/>
              <g>
                <path class="cls-18" d="M200.28,113.24c-.48-.27-1.56-1.04-1.86.82-.52,3.21,1.36,3.54,1.36,3.54.02-.47.04-1.14.11-1.9.58-.15.06-.72.14-1.09,0-.07.01-.15.04-.23.05-.38.13-.74.22-1.15Z"/>
                <path class="cls-25" d="M200.06,114.39s-.41-.71-.9-.62c-.49.09-.48,1.18-.31,1.86.17.69.53.85.64.7.11-.14-.54-.71-.19-.91.35-.2.64-.17.66-.34.02-.17.1-.7.1-.7Z"/>
                <path class="cls-11" d="M201.81,112.27c-.36.8-.57,1.68-.81,2.53-.13.47-.22.98-.4,1.43-.09.23-.25,1.03-.55,1.07-.45.06-.07-2.24-.04-2.53.01-.16.05-1.92.18-1.96,0,0,1.62-.53,1.62-.53Z"/>
              </g>
            </g>
            <path class="cls-1" d="M179.59,171.36c14.41-1.62,22.19-8.44,22.19-8.44,0,0,1.58-13.89,2.47-17.61.88-3.71,3.98-11.71,3.55-14.49-.45-2.78-2.28-3.73-3.71-4.23,0,0,.06-.5-.99-.95l-.36,1.25-2.31,1.98-.73-4.08-.18-1.07-.53.77c-1.23-.47-2.56-1.3-3.85-1.73-2.17-.73-4.21-.95-5.38-.98-3.43-.08-6.28,8.79-8.89,21.9-2.61,13.11-1.25,27.68-1.25,27.68Z"/>
            <polygon class="cls-10" points="204.17 125.4 202.72 126.89 202.75 126.77 203.25 125.05 203.64 125.1 204.17 125.4"/>
            <path class="cls-10" d="M199.5,123.73l-1.75,2.51c-1.11-1.57-2.64-3.48-2.64-3.48l1.64-1.48,2.75,2.45Z"/>
            <polygon class="cls-11" points="204.1 126.37 203.96 128.05 202.71 126.93 202.72 126.89 204.17 125.4 204.1 126.37"/>
            <g>
              <path class="cls-18" d="M181.8,152.42c2.36.71,7.77-12.61,9.65-18.44,1.88-5.82,2.32-10.75-.56-11.62-2.88-.87-5.24,3.47-6.91,9.36-1.66,5.89-4.54,19.98-2.18,20.69Z"/>
              <path class="cls-18" d="M204.19,168.53c1.41-1.67-10.53-12.48-14.01-15.4-3.48-2.92-7.37-5.75-8.94-3.87-1.58,1.88,1.88,5.22,5.36,8.14,3.48,2.92,16.19,12.8,17.59,11.13Z"/>
              <path class="cls-18" d="M201.07,165.78c-1.8,1.85,1.82,4.66,3.09,5.57,2.07,1.49,5.39.22,5.97-.57.59-.79-4.12-2.44-4.14-2.73-.02-.3,2.51.99,2.98.19s-2.66-2.93-4.23-3.3c-1.57-.37-2.55-.31-3.68.85Z"/>
            </g>
            <path class="cls-32" d="M193.05,131.63c.64-3.32,1.27-8.31-1.99-9.59-1.79-.7-4.47-.33-6.52,5.12-1.08,2.87-3.39,11.12-4.39,16.04,2.15.81,5.83,1.49,8.19,1.87,1.53-3.99,4.37-11.59,4.72-13.44Z"/>
          </g>
          <path class="cls-11" d="M212.97,115.38s-1.28-.17-3.14-.59-5.41-2.66-5.41-2.66l-1.76.41s.9.79,1.24,1.52c.34.72-.72,1.66,1.1,2.55,1.83.9,2.79.66,3.66.34.86-.31,1.6-.06,1.66.68.06.74,1.61.94,1.61.94l1.03-3.21Z"/>
        </g>
        <g>
          <path class="cls-14" d="M282.81,274.24h-8.72v-25.18c0-8.28-6.73-15.01-15.01-15.01s-15.01,6.73-15.01,15.01v4.66h-8.72v-4.66c0-13.08,10.64-23.73,23.73-23.73s23.73,10.64,23.73,23.73v25.18Z"/>
          <path class="cls-14" d="M283.43,260.93h-48.71c-3.21,0-5.82,2.61-5.82,5.82v33.58c0,3.21,2.61,5.8,5.82,5.8h48.71c3.21,0,5.82-2.59,5.82-5.8v-33.58c0-3.21-2.61-5.82-5.82-5.82ZM261.33,283.19v8.01c0,1.23-1.02,2.23-2.25,2.23s-2.25-1-2.25-2.23v-8.01c-1.65-.82-2.81-2.52-2.81-4.52,0-2.79,2.27-5.06,5.06-5.06s5.06,2.27,5.06,5.06c0,1.99-1.16,3.7-2.81,4.52Z"/>
        </g>
        <g>
          <g>
            <rect class="cls-26" x="239.49" y="73.7" width="121.55" height="73.33" rx="3.29" ry="3.29"/>
            <g>
              <path class="cls-36" d="M239.49,79.76v64.05c0,1.78,1.47,3.22,3.29,3.22h114.98c1.81,0,3.29-1.44,3.29-3.22v-64.05h-121.55Z"/>
              <path class="cls-37" d="M359.7,81.1v62.71c0,1.04-.87,1.88-1.95,1.88h-114.98c-1.07,0-1.95-.84-1.95-1.88v-62.71h118.87M361.04,79.76h-121.55v64.05c0,1.78,1.47,3.22,3.29,3.22h114.98c1.81,0,3.29-1.44,3.29-3.22v-64.05h0Z"/>
            </g>
            <g>
              <path class="cls-36" d="M245.05,77.07c0,.61-.5,1.11-1.11,1.11s-1.11-.5-1.11-1.11.5-1.11,1.11-1.11,1.11.5,1.11,1.11Z"/>
              <path class="cls-36" d="M249.91,77.07c0,.61-.5,1.11-1.11,1.11s-1.11-.5-1.11-1.11.5-1.11,1.11-1.11,1.11.5,1.11,1.11Z"/>
              <path class="cls-36" d="M254.78,77.07c0,.61-.5,1.11-1.11,1.11s-1.11-.5-1.11-1.11.5-1.11,1.11-1.11,1.11.5,1.11,1.11Z"/>
            </g>
          </g>
          <g>
            <g>
              <rect class="cls-5" x="250.63" y="85.27" width="15.58" height=".99"/>
              <rect class="cls-5" x="268.22" y="85.27" width="49.28" height=".99"/>
              <rect class="cls-4" x="319.77" y="85.27" width="4.36" height=".99"/>
              <rect class="cls-30" x="250.63" y="88.81" width="22.61" height=".99"/>
              <rect class="cls-5" x="277.99" y="88.81" width="22.61" height=".99"/>
              <rect class="cls-7" x="308.32" y="88.81" width="22.61" height=".99"/>
              <rect class="cls-5" x="250.63" y="92.34" width="33.99" height="1"/>
              <rect class="cls-5" x="286.04" y="92.34" width="1.33" height="1"/>
              <rect class="cls-30" x="290.36" y="92.34" width="60.15" height="1"/>
              <rect class="cls-4" x="259.28" y="95.87" width="79.26" height=".99"/>
              <rect class="cls-5" x="250.63" y="99.41" width="63.87" height=".99"/>
              <rect class="cls-4" x="318.34" y="99.41" width="7.76" height=".99"/>
              <rect class="cls-5" x="250.63" y="102.94" width="40.93" height="1"/>
              <rect class="cls-5" x="295.92" y="102.94" width="6.96" height="1"/>
              <rect class="cls-4" x="250.63" y="106.47" width="47.08" height=".99"/>
              <rect class="cls-5" x="300.24" y="106.47" width="2.16" height=".99"/>
              <rect class="cls-30" x="305.29" y="106.47" width="35.85" height=".99"/>
              <rect class="cls-30" x="250.63" y="110.01" width="20.6" height=".99"/>
              <rect class="cls-7" x="274.03" y="110.01" width="31.83" height=".99"/>
              <rect class="cls-5" x="311.2" y="110.01" width="43.07" height=".99"/>
              <rect class="cls-30" x="250.63" y="113.54" width="8.94" height="1"/>
              <rect class="cls-5" x="304.94" y="113.54" width="42.64" height="1"/>
              <rect class="cls-4" x="262.57" y="113.54" width="35.96" height="1"/>
              <rect class="cls-7" x="250.63" y="117.07" width="15.71" height=".99"/>
              <rect class="cls-7" x="268.79" y="117.07" width="38.17" height=".99"/>
              <rect class="cls-30" x="309.6" y="117.07" width="4.48" height=".99"/>
              <rect class="cls-5" x="259.58" y="120.61" width="27.7" height=".99"/>
              <rect class="cls-5" x="290.66" y="120.61" width="21.94" height=".99"/>
              <rect class="cls-5" x="250.63" y="124.13" width="52.34" height="1"/>
              <rect class="cls-7" x="307.92" y="124.13" width="40.36" height="1"/>
              <rect class="cls-4" x="250.63" y="127.67" width="16.77" height=".99"/>
              <rect class="cls-30" x="272.54" y="127.67" width="16.77" height=".99"/>
              <rect class="cls-5" x="294.45" y="127.67" width="28" height=".99"/>
              <rect class="cls-5" x="250.63" y="131.21" width="86.89" height=".99"/>
              <rect class="cls-7" x="339.59" y="131.21" width="13.42" height=".99"/>
              <rect class="cls-7" x="250.63" y="134.73" width="8.2" height="1"/>
              <rect class="cls-4" x="265.73" y="134.73" width="64.36" height="1"/>
              <rect class="cls-5" x="250.63" y="138.27" width="26.78" height=".99"/>
              <rect class="cls-7" x="283.14" y="138.27" width="60.05" height=".99"/>
            </g>
            <g>
              <rect class="cls-7" x="246.27" y="85.27" width="1.23" height=".99"/>
              <rect class="cls-7" x="246.27" y="88.81" width="1.23" height=".99"/>
              <rect class="cls-7" x="246.27" y="92.34" width="1.23" height="1"/>
              <rect class="cls-7" x="246.27" y="95.87" width="1.23" height=".99"/>
              <rect class="cls-7" x="246.27" y="99.41" width="1.23" height=".99"/>
              <rect class="cls-7" x="246.27" y="102.94" width="1.23" height="1"/>
              <rect class="cls-7" x="246.27" y="106.47" width="1.23" height=".99"/>
              <rect class="cls-7" x="246.27" y="110.01" width="1.23" height=".99"/>
              <rect class="cls-7" x="246.27" y="113.54" width="1.23" height="1"/>
              <rect class="cls-7" x="246.27" y="117.07" width="1.23" height=".99"/>
              <rect class="cls-7" x="246.27" y="120.61" width="1.23" height=".99"/>
              <rect class="cls-7" x="246.27" y="124.13" width="1.23" height="1"/>
              <rect class="cls-7" x="246.27" y="127.67" width="1.23" height=".99"/>
              <rect class="cls-7" x="246.27" y="131.21" width="1.23" height=".99"/>
              <rect class="cls-7" x="246.27" y="134.73" width="1.23" height="1"/>
              <rect class="cls-7" x="246.27" y="138.27" width="1.23" height=".99"/>
            </g>
          </g>
        </g>
        <path class="cls-31" d="M349.2,281.47l-35.05-51.23c-.91-1.34-2.27-2.3-3.82-2.72-3.15-.85-6.47.67-7.87,3.61l-26.84,55.97c-.87,1.82-.89,3.92-.05,5.75.85,1.84,2.45,3.2,4.39,3.72t0,0c.74.2,1.51.27,2.28.21l61.89-4.74c2.44-.19,4.53-1.62,5.59-3.82,1.06-2.21.87-4.73-.52-6.75Z"/>
        <g>
          <path class="cls-14" d="M287.4,289.95c-1.94-.52-3.55-1.88-4.39-3.72-.84-1.83-.82-3.93.05-5.75l26.84-55.97c1.41-2.94,4.72-4.46,7.88-3.61,1.55.42,2.91,1.38,3.82,2.72l35.05,51.23c1.38,2.02,1.58,4.55.52,6.75-1.06,2.21-3.15,3.64-5.59,3.82l-61.89,4.74c-.77.06-1.54-.01-2.28-.21h0Z"/>
          <path class="cls-4" d="M313.12,226.05l-26.84,55.97c-1.06,2.22.67,4.76,3.13,4.57l61.89-4.74c2.45-.19,3.78-2.96,2.39-4.99l-35.05-51.23c-1.39-2.03-4.46-1.8-5.52.42Z"/>
          <path class="cls-14" d="M319.8,276.35c-2.55.2-4.49-1.47-4.66-3.77-.18-2.3,1.49-4.24,4.04-4.43,2.45-.19,4.39,1.47,4.56,3.77.18,2.3-1.49,4.24-3.94,4.43ZM316.27,240.56l1.23-.09c1.73-.13,3.22,1.19,3.29,2.92l.78,18.09c.07,1.65-1.18,3.06-2.82,3.18h0c-1.64.13-3.09-1.07-3.28-2.71l-2.02-17.99c-.19-1.72,1.08-3.26,2.81-3.39Z"/>
        </g>
        <g>
          <path class="cls-18" d="M106.59,421.26l-.13,2.84c-.04.4-.4.69-.8.66l-7.61-.72c-.69-.07-.9-.97-.31-1.33,1.23-.74,2.93-1.59,4.44-1.72.13-.01,3.48-23.74,4.63-23.64,1.04.09-.22,23.92-.22,23.92Z"/>
          <path class="cls-18" d="M154.94,419.19s.07.12.17.31l1.15,2.02c.12.21.14,1.41-.22,1.87-1.27,1.66-4.72,3.06-5.18,2.55-.46-.51-.28-2.28-.07-3.59,0,0,0,0,0,0,.14-.84.28-1.49.28-1.49,0,0-10.55-20.73-9.59-21.23,1.06-.55,13.45,19.58,13.45,19.58Z"/>
          <path class="cls-18" d="M102.7,385.78c-2.78-1.57,4.43-17.86,8.02-24.54,3.59-6.67,7.67-11.26,11.07-9.34,3.4,1.91,1.59,7.78-2.26,14.31-3.85,6.53-14.05,21.14-16.84,19.57Z"/>
          <path class="cls-18" d="M105.04,421.78c-2.83.02-3.75-25-3.78-30.63-.03-5.63.37-11.57,3.55-11.58,3.18-.02,3.64,5.92,3.67,11.54.03,5.63-.61,30.65-3.44,30.67Z"/>
          <path class="cls-18" d="M131.72,392.31c-3.16.44-7.33-16.88-8.52-24.37-1.2-7.49-.74-13.6,3.13-14.15,3.86-.54,5.99,5.22,6.89,12.74.91,7.53,1.67,25.33-1.5,25.77Z"/>
          <path class="cls-18" d="M153.82,421.03c-2.33,1.62-16.84-18.74-20.05-23.36-3.21-4.62-6.24-9.75-3.63-11.56,2.61-1.81,6.35,2.82,9.56,7.44,3.21,4.62,16.45,25.87,14.12,27.48Z"/>
          <path class="cls-14" d="M106.68,421.79l-.25,2.65c-.03.27-.26.46-.53.44l-8.52-.81c-.75-.07-.97-1.05-.34-1.44,1.33-.8,3.4-1.54,4.93-2.11.32.34.75,1.34,1.36,1.51.6.17,3.34-.24,3.34-.24Z"/>
          <path class="cls-14" d="M155.11,419.5l1.15,2.02c.12.21.14,1.41-.22,1.87-1.27,1.66-4.72,3.06-5.18,2.55-.46-.51-.28-2.28-.07-3.59,0,0,0,0,0,0,.18-.49,2.04-1.33,2.42-1.35.38-.03,1.31,0,1.44-.1.14-.11.46-1.39.46-1.39Z"/>
          <path class="cls-18" d="M107.08,340.97c-2.17-.71.77-13.7,2.43-19.11,1.66-5.42,3.93-9.39,6.58-8.53,2.65.86,2.15,5.41.29,10.77-1.85,5.36-7.13,17.58-9.3,16.87Z"/>
          <g>
            <path class="cls-18" d="M97.33,315.08c1.87-.77,8.07,12.79,9.67,16.67s3.01,8.11.91,8.98c-2.1.87-4.08-3.12-5.68-7.01-1.6-3.89-6.77-17.87-4.9-18.64Z"/>
            <path class="cls-18" d="M100.91,315.59c-.82-.57-1.63-1.14-2.42-1.69-.01.08-.03.12-.06.11-.26-.09-1.9-5.21-2.75-4.87-.85.34-1.49,3.54-.65,5.74.52,1.35,2.19,5.26,4.26,4.08,1.3-.74,1.59-1.61,1.62-3.1,0-.08-.01-.18-.02-.26Z"/>
          </g>
          <path class="cls-18" d="M132.91,357.86l-21.04-1.32,1.26-33.9,2.17-9.45,10.39-2.49,5.81,1.49c3.3.85,5.5,3.98,5.16,7.38l-3.65,23.82-.11,14.48Z"/>
          <path class="cls-19" d="M109.94,319.67c-1.51,4.01-2.54,8.57-2.54,8.57,0,0,.77,1.5,4.47,2.42h.03c.24-4.6.47-8.26.62-9.53.55-4.55,2.5-8.09,2.5-8.09-1.93.57-3.58,2.62-5.09,6.64Z"/>
          <path class="cls-14" d="M111.89,358.7c-5.59,7.7-9.82,19.63-11.13,25.05-1.31,5.42.36,36.33.36,36.33,0,0,3.9,2.06,6.61.16,0,0,1.77-34.75,3-37.22,1.24-2.47,13.57-21.75,13.57-21.75l-12.41-2.57Z"/>
          <path class="cls-14" d="M121.39,360.38s.88,17.67,5.28,28.37c4.4,10.7,23.02,31.8,23.02,31.8,0,0,3.94.5,5.13-2.94,0,0-17.91-29.43-18.6-31.07-.68-1.64-2.68-25.18-2.68-25.18l-12.16-.98Z"/>
          <path class="cls-42" d="M120.78,311.83l-5.76,1.2s-1.96,3.55-2.5,8.09c-.15,1.27-.38,4.93-.62,9.53-.61,11.81-1.36,29.84-1.36,29.84l.55.03,10.98.69,11.1.7.47.03s-.18-13.47-.1-17.58c.08-4.45,1.43-8.82,1.94-13.23.37-3.15.56-6.31.59-9.48.02-2.59.33-5.94-1.61-8-.71-.75-1.91-1.4-2.89-1.63-.17-.04-2.54-.62-2.6-.48,0,.02-1.19,3.04-5.57,2.81-4.4-.23-2.61-2.52-2.61-2.52Z"/>
          <g>
            <rect class="cls-5" x="52.15" y="255.55" width="134.15" height="56.56" rx="4.71" ry="4.71"/>
            <path class="cls-18" d="M99.11,311.35c-.72.18-.49,2.11-.57,2.58.76.58,1.55,1.18,2.35,1.78-.02-1.58-.98-4.56-1.78-4.37Z"/>
            <g>
              <g>
                <rect class="cls-36" x="63.94" y="269.03" width="34.69" height="34.69" rx="3.99" ry="3.99"/>
                <path class="cls-12" d="M84.6,286.22c-.98.55-2.11.86-3.31.86-1.2,0-2.33-.31-3.31-.86-3.38,1.33-5.78,4.61-5.78,8.46v.39c2.42,2.14,5.61,3.43,9.09,3.44,3.49,0,6.66-1.29,9.1-3.43v-.38c0-3.85-2.4-7.14-5.78-8.46ZM81.29,274.24c-3.3,0-5.99,2.68-5.99,5.98,0,3.3,2.68,5.99,5.98,5.99,3.31,0,5.99-2.68,5.99-5.98,0-3.3-2.67-5.99-5.98-5.99Z"/>
              </g>
              <g>
                <g>
                  <path class="cls-36" d="M170.2,290.76l-49.27-.02c-2.38,0-4.31-1.93-4.31-4.31h0c0-2.38,1.93-4.31,4.31-4.31l49.27.02c2.38,0,4.31,1.93,4.31,4.31h0c0,2.38-1.93,4.31-4.31,4.31Z"/>
                  <text class="cls-47" transform="translate(134.89 287.89) rotate(.03)"><tspan x="0" y="0">Password</tspan></text>
                </g>
                <g>
                  <path class="cls-36" d="M170.2,277.21l-49.27-.02c-2.38,0-4.31-1.93-4.31-4.31h0c0-2.38,1.93-4.31,4.31-4.31l49.27.02c2.38,0,4.31,1.93,4.31,4.31h0c0,2.38-1.93,4.31-4.31,4.31Z"/>
                  <text class="cls-47" transform="translate(134.3 274.09) rotate(.03)"><tspan x="0" y="0">username</tspan></text>
                </g>
                <g>
                  <path class="cls-14" d="M159.69,304.17h-28.26c-2.38-.01-4.31-1.94-4.31-4.33h0c0-2.38,1.93-4.31,4.31-4.31h28.26c2.38.01,4.31,1.94,4.31,4.33h0c0,2.38-1.93,4.31-4.31,4.31Z"/>
                  <text class="cls-46" transform="translate(137.72 301.31) rotate(.03)"><tspan x="0" y="0">SUBMIT</tspan></text>
                </g>
              </g>
            </g>
            <path class="cls-6" d="M186.3,260.26v2.78H52.15v-2.78c0-2.6,2.11-4.71,4.71-4.71h124.72c2.6,0,4.71,2.11,4.71,4.71Z"/>
            <g>
              <circle class="cls-36" cx="176.88" cy="259.36" r="1.09"/>
              <circle class="cls-36" cx="171.45" cy="259.36" r="1.09"/>
              <circle class="cls-36" cx="166.03" cy="259.36" r="1.09"/>
            </g>
          </g>
          <g>
            <path class="cls-18" d="M141.26,341.19c-2.19.71-7.52-11.61-9.39-17.01-1.87-5.4-2.38-9.99.29-10.86,2.67-.87,4.97,3.13,6.64,8.6,1.68,5.46,4.65,18.56,2.46,19.27Z"/>
            <path class="cls-8" d="M132.8,312.73c-2.71.3-4.12,2.8-3.18,6.65,1.09,4.45,4.72,12.69,4.72,12.69.23-.04.45-.09.66-.14,5.42-1.16,6.18-2.9,6.18-2.9-1.57-6.61-4.2-13.8-6.32-15.34-.56-.41-1.29-.72-2.06-.96Z"/>
          </g>
          <g>
            <path class="cls-18" d="M125.1,360.23c-1.67-1.18,6.53-13.78,8.97-17.24,2.44-3.47,5.28-6.95,7.15-5.63,1.87,1.32-.45,5.16-2.9,8.62-2.44,3.47-11.56,15.42-13.22,14.25Z"/>
            <path class="cls-18" d="M127.26,356.99c2.07,1.24-.53,4.64-1.46,5.77-1.51,1.84-4.87,2.26-5.59,1.68-.72-.58,3.02-4.48,2.97-4.75-.05-.27-1.85,2.01-2.47,1.4-.62-.61,1.7-3.28,3.03-3.99,1.33-.7,2.23-.89,3.53-.11Z"/>
          </g>
          <g>
            <path class="cls-9" d="M138.3,376.17c2.74,8.99-2.14,13.33-9.14,15.47-7,2.14-13.48,1.25-16.22-7.73-2.74-8.99,6.29-24.81,6.29-24.81,0,0,16.33,8.09,19.07,17.07Z"/>
            <path class="cls-4" d="M119.23,359.1s-9.04,15.82-6.29,24.81c1.25,4.1,3.28,6.51,5.78,7.72,1.55.19,3.21.14,4.94-.09,6.88-.93,12.09-4.36,10.85-13.54-.89-6.54-8.28-13.75-12.48-17.37-1.69-.97-2.8-1.52-2.8-1.52Z"/>
            <rect class="cls-33" x="116.63" y="360.85" width="6.77" height="1.67" transform="translate(-100.29 50.74) rotate(-16.96)"/>
            <polygon class="cls-9" points="123.62 353.31 112.35 356.75 116.54 361.87 123.01 359.89 123.62 353.31"/>
            <polygon class="cls-4" points="112.35 356.75 116.54 361.87 122.09 360.17 121.23 354.04 112.35 356.75"/>
            <path class="cls-33" d="M122.24,372.8c1.04.07,1.73.73,2.07,1.86l.05.17-1.16.35c-.19-.63-.49-1.03-.89-1.21l.13,2.24c1.53-.22,2.47.12,2.83,1.33l.03.09c.42,1.38-.31,2.52-2.05,3.05-.18.06-.36.1-.53.14l.09,1.39-.95.29-.1-1.63c-1.06-.1-1.8-.75-2.12-1.81l-.02-.07,1.16-.35c.17.55.48.91.9,1.07l-.15-2.36c-1.58.21-2.4-.23-2.73-1.3l-.03-.09c-.41-1.34.43-2.48,2.04-2.98.15-.05.3-.08.44-.11l-.09-1.38.95-.29.1,1.59ZM121.49,376.35l-.15-2.42c-.06,0-.13.03-.19.04h-.05c-.83.27-1.36.86-1.15,1.56l.02.06c.18.58.58.86,1.51.76ZM124.12,378.05l-.02-.06c-.2-.65-.69-.87-1.61-.78l.16,2.57c.09-.02.19-.04.28-.07h.05c.89-.29,1.37-.91,1.14-1.66Z"/>
            <path class="cls-33" d="M133.13,366.87s-.04.01-.06.01c-1.61.29-2.97-.78-3.63-1.45-.39-.39-.74-.81-1.07-1.22-.42-.52-.82-1-1.3-1.42-.98-.86-2.24-1.37-3.54-1.42-1.3-.06-2.6.34-3.65,1.12-.23.17-.55.12-.72-.11-.17-.23-.12-.55.11-.72,1.24-.92,2.77-1.38,4.3-1.32,1.54.06,3.02.66,4.18,1.68.53.47.98,1.01,1.41,1.53.34.41.65.79,1,1.14.42.42,1.54,1.38,2.73,1.17.28-.05.55.14.6.42.05.26-.11.51-.36.58Z"/>
            <path class="cls-33" d="M132,364.25s-.06.01-.09.01c-1.22.03-2.34-.75-3.08-1.35-.18-.15-.37-.3-.55-.45-.66-.55-1.28-1.08-2-1.39-.83-.36-1.8-.44-2.88-.22-.98.19-1.93.6-2.86.99-.17.07-.38,0-.45-.18-.07-.17,0-.38.18-.45.95-.41,1.94-.83,2.99-1.03,1.2-.24,2.34-.14,3.29.27.81.35,1.5.93,2.17,1.49.18.15.36.3.54.44.65.53,1.63,1.22,2.63,1.2.19,0,.35.15.35.33,0,.16-.1.29-.24.34Z"/>
          </g>
          <path class="cls-18" d="M128,358.48c-.28,1.76-2.1,4.21-3.03,4.93-.93.72-3.38,0-3.93-.72-.55-.72,2.9-3.66,2.9-3.66l4.07-.55Z"/>
          <path class="cls-18" d="M128.17,306.31l-.43,6.8s-1.49.77-4.85.56c-1.81-.11-2.17-1-2.17-1l.16-2.51,7.29-3.85Z"/>
          <path class="cls-18" d="M129.28,301.29c-.03.25-.05.48-.08.7,0,.08,0,.16,0,.25-.09,4.05-2.95,8.21-6.89,8.55,0,0-.03,0-.09.01-.03,0-.08,0-.14,0-.84.05-3.88.11-4.9-1.18-1.21-1.51-2.19-4.21-2.08-6,.11-1.79.46-2.19.51-2.92.04-.56-.16-2.35-.11-3.12.2-3.6,2.85-7.03,7.16-6.76,6.46.41,7.09,6.13,6.64,10.46Z"/>
          <g>
            <path class="cls-18" d="M127.39,301.22c.52-.09,1.76-.43,1.42,1.35-.58,3.08-2.38,2.77-2.38,2.77.14-.43.34-1.04.52-1.76-.47-.33.18-.67.23-1.03.03-.06.04-.14.04-.22.08-.36.13-.72.18-1.11Z"/>
            <path class="cls-25" d="M127.21,302.34s.6-.52,1.02-.27c.42.25.05,1.22-.33,1.79-.38.57-.76.6-.81.43s.72-.47.47-.76c-.25-.3-.52-.36-.49-.52.03-.16.14-.66.14-.66Z"/>
          </g>
          <path class="cls-25" d="M119.9,310.73c1.95.21,4.68-1.53,5.45-2.36.77-.82,1.29-3.03,1.29-3.03,0,0,.57.12,1.05-.45,0,0-.11.97-.52,1.28-.4.31-.65.36-.75.59s-.74,3.27-2.41,4.03c-1.68.76-4.11-.06-4.11-.06Z"/>
          <path class="cls-11" d="M128.15,306.47c.33.24.73.29.99.13.36-.23.48-.92.03-1.44.1-.01.9-.11,1.3-.78.38-.65.23-1.57-.41-2.18.26-.1.7-.32,1.01-.77.52-.76.48-1.86-.11-2.8.08-.06.4-.31.46-.74.07-.46-.2-.94-.66-1.2.1-.09.62-.56.63-1.28.01-.76-.55-1.49-1.4-1.76.35-.61.39-1.35.05-1.89-.47-.77-1.63-1.07-2.63-.52.04-.61-.28-1.18-.81-1.46-.72-.38-1.43,0-1.48.04-.12-.29-.28-.46-.41-.57-.65-.53-1.79-.43-2.87.24-.26-.39-.54-.57-.73-.66-.9-.42-2.21.02-3.22,1.15-.55-.42-1.31-.44-1.86-.05-.49.35-.73.96-.61,1.57-.53.03-.99.39-1.15.89-.16.52.02,1.08.46,1.41-.13.54.07,1.09.49,1.38.51.35,1.26.27,1.72-.25.02.04.19.43.61.52.36.08.74-.09.96-.42.1.18.44.73,1.1.93.83.25,1.83-.16,2.41-1.07.04.13.21.59.68.88.66.4,1.35.15,1.44.12-.08.17-.22.57-.13,1.05.16.87.94,1.27,1.04,1.32-.32.5-.3,1.12.03,1.54.37.47.95.48,1.03.48,0,0,0,2.79.32,2.83.31.04,1.13-1.9,1.13-1.9,0,0,1.02-.24,1.26.42.24.66-.09,1.86-.5,2.46-.4.59-.61.8-.61.8l.45,1.58Z"/>
          <path class="cls-11" d="M125.41,298.69s-8.31.07-10.03.03c0,0,.03,1.52,0,1.97-.03.45-.24,1.14-.24,1.14,0,0,.86.14,1.48.03.62-.1,1-1,1.48-.93.48.07.24,1,2.31,1.17,2.07.17,3.17.24,3.93-.24.76-.48,1.52-2.66,1.52-2.66l-.45-.52Z"/>
        </g>
        <g>
          <g>
            <path class="cls-18" d="M433.85,316.05c1.71.53-1,10.9-1.9,13.79-.9,2.89-2.1,5.86-4.02,5.26-1.91-.59-1.23-3.72-.33-6.61.9-2.89,4.54-12.97,6.25-12.44Z"/>
            <g>
              <path class="cls-18" d="M433.65,318.36c2.11.15,1.89-3.45,1.91-4.73.02-1.65-2.16-2.33-2.97-2.28-.81.05.05,2.56-.13,2.73-.17.17-.71-2.09-1.46-1.96-.75.13-.43,3.21.17,4.38.6,1.17,1.15,1.76,2.48,1.85Z"/>
              <path class="cls-18" d="M431.18,316.51c-.6-1.17-.93-4.25-.17-4.38s1.29,2.13,1.46,1.96l-.78,3.26c-.18-.24-.34-.51-.51-.84Z"/>
              <path class="cls-18" d="M432.39,311.45c-.29.27-.35,1.1-.25,1.55.1.46.9.84,1.67,1.09.76.25,1.38-1.4,1.38-1.4l-1.25-.87-1.55-.38Z"/>
            </g>
          </g>
          <g>
            <g>
              <path class="cls-4" d="M419.96,290.4c9.52.49,16.84,8.6,16.35,18.12-.49,9.52-8.6,16.84-18.12,16.35-9.52-.49-16.84-8.6-16.35-18.12.49-9.52,8.6-16.84,18.12-16.35ZM433.82,308.39c.42-8.15-5.85-15.09-13.99-15.5-8.15-.42-15.09,5.85-15.5,13.99-.42,8.15,5.85,15.09,13.99,15.5,8.15.42,15.09-5.85,15.5-13.99Z"/>
              <path class="cls-28" d="M419.83,292.89c8.15.42,14.41,7.36,13.99,15.5-.42,8.15-7.36,14.41-15.5,13.99-8.15-.42-14.41-7.36-13.99-15.5.42-8.15,7.36-14.41,15.5-13.99ZM432.77,308.34c.39-7.57-5.43-14.01-13-14.4-7.57-.39-14.01,5.43-14.4,13-.39,7.57,5.43,14.01,13,14.4,7.57.39,14.01-5.43,14.4-13Z"/>
              <path class="cls-9" d="M419.78,293.94c7.57.39,13.38,6.83,13,14.4-.39,7.57-6.83,13.38-14.4,13-7.57-.39-13.38-6.83-13-14.4.39-7.57,6.83-13.38,14.4-13ZM430.9,308.24c.33-6.53-4.69-12.1-11.22-12.43-6.53-.33-12.1,4.69-12.43,11.22-.33,6.53,4.69,12.1,11.22,12.43,6.53.33,12.1-4.69,12.43-11.22Z"/>
              <path class="cls-4" d="M419.68,295.81c6.53.33,11.55,5.9,11.22,12.43-.33,6.53-5.9,11.55-12.43,11.22-6.53-.33-11.55-5.9-11.22-12.43.33-6.53,5.9-11.55,12.43-11.22Z"/>
            </g>
            <path class="cls-9" d="M421.41,302.12c1.41.62,2.03,1.88,1.94,3.62v.26s-1.8-.09-1.8-.09c.05-.97-.16-1.68-.63-2.13l-.94,3.17c2.23.47,3.36,1.4,3.26,3.26v.14c-.12,2.12-1.71,3.34-4.38,3.21-.28-.01-.54-.05-.81-.08l-.58,1.98-1.46-.07.68-2.31c-1.43-.67-2.12-1.94-2.03-3.57v-.11s1.8.09,1.8.09c-.04.84.2,1.51.71,1.94l.98-3.35c-2.3-.5-3.21-1.52-3.13-3.17v-.14c.11-2.07,1.84-3.23,4.34-3.1.23.01.46.04.66.07l.58-1.96,1.46.07-.66,2.25ZM418.59,306.68l1-3.43c-.09-.02-.19-.03-.28-.03h-.07c-1.28-.07-2.31.49-2.37,1.56v.09c-.05.9.38,1.48,1.72,1.81ZM421.39,310.36v-.09c.06-1-.51-1.56-1.83-1.89l-1.07,3.64c.14.02.28.03.42.04h.07c1.37.07,2.35-.54,2.41-1.7Z"/>
          </g>
          <path class="cls-11" d="M398.83,307.53c-.95,5.4-2.27,17.69-2.27,17.69l14.13.76-.04-19.33-5.02-2.93-6.81,3.83Z"/>
          <path class="cls-18" d="M429.3,334.68c-.84,1.83-11.94-2.05-16.53-4.05-4.59-2-7.85-4.39-6.83-6.63,1.02-2.24,4.97-1.34,9.48.82,4.51,2.16,14.71,8.02,13.88,9.85Z"/>
          <path class="cls-18" d="M424.78,386.75c2.36-1.5-4.71-15.41-8.17-21.08-3.46-5.67-7.24-9.48-10.12-7.65-2.88,1.83-1.02,6.88,2.65,12.41s13.29,17.83,15.65,16.32Z"/>
          <path class="cls-18" d="M393.94,390.17c2.77.4,6.47-14.76,7.53-21.32,1.07-6.55.68-11.91-2.7-12.4-3.38-.49-5.26,4.55-6.07,11.14-.82,6.59-1.53,22.18,1.24,22.58Z"/>
          <path class="cls-18" d="M394,361.2l19.64,1.01s-1.26-8.82-1.19-11.97c.06-2.59-.55-10.87-.55-10.87,0,0,2.55-3.45,2.63-5.31.12-2.82-4.25-10.77-4.25-10.77l-6.79-2.47-4.74.87c-2.96.41-3.19,3.19-3.34,6.17-.46,9.01,3.01,15.32,2.4,20.47-.39,3.3-3.81,12.88-3.81,12.88Z"/>
          <g>
            <path class="cls-18" d="M401.55,314.91l-.36,7.03s1.22.82,4.17.97c1.59.08,1.98-.65,1.98-.65l.11-2.2-5.9-5.15Z"/>
            <g>
              <path class="cls-25" d="M407.82,310.75c.6.2.74,2.24.63,2.23-.11-.01-.41-1.65-.93-1.92-.52-.28.3-.3.3-.3Z"/>
              <path class="cls-25" d="M410.29,310.88c-.43.3-.37,1.96-.36,2.09,0,.13.37-1.86.37-1.86v-.23Z"/>
              <g>
                <path class="cls-34" d="M406.11,312.34c-.01.28.2.53.49.54.28.01.53-.2.54-.49.01-.28-.2-.53-.49-.54-.28-.01-.53.2-.54.49Z"/>
                <path class="cls-34" d="M405.58,311.9c.27-.13.66-.26,1.08-.24.42.02.79.2,1.05.35l-2.13-.11Z"/>
                <path class="cls-34" d="M410.35,312.56c-.01.28.2.53.49.54.28.01.53-.2.54-.49.01-.28-.2-.53-.49-.54-.28-.01-.53.2-.54.49Z"/>
                <path class="cls-34" d="M410.14,312.13c.19-.13.46-.27.76-.26s.55.18.73.34l-1.49-.08Z"/>
              </g>
              <path class="cls-35" d="M409.2,315.31c-.51-.03-.93-.09-.94.05s.4.33.92.36c.51.03.94-.12.95-.26s-.41-.12-.93-.15Z"/>
              <path class="cls-25" d="M409.09,317.42c-.38-.02-.68-.07-.69.04,0,.1.29.35.67.37.38.02.7-.2.7-.3s-.3-.09-.68-.11Z"/>
              <path class="cls-25" d="M407.18,316.43c-.05,0-.1.03-.12.08-.02.06.01.13.07.15.04.01.88.3,1.74.34.86.04,1.76-.15,1.79-.16.06-.01.1-.08.09-.14-.01-.06-.08-.1-.14-.09,0,0-.9.2-1.73.15-.83-.04-1.67-.33-1.68-.33-.01,0-.02,0-.03,0Z"/>
              <g>
                <path class="cls-38" d="M407.83,310.99c.22-.1-.09-.36-.52-.36-.43,0-1.57-.13-2.15.36,0,0,.06.05.32-.04s2.18.11,2.35.03Z"/>
                <path class="cls-38" d="M410.24,311.11c-.14-.12.09-.35.38-.31.29.04,1.07,0,1.42.55,0,0-.04.04-.21-.06-.17-.11-1.48-.08-1.59-.17Z"/>
              </g>
            </g>
            <path class="cls-18" d="M401.62,311.2c0,.22,0,.42,0,.62,0,.07-.01.14-.02.22-.33,3.55-.09,6.32,3.87,7.96.73.13,3.27.82,4.3-.2,1.21-1.2,2.27-4.4,2.33-5.54v-.05c.05-1.11-.1-1.42-.07-2.06.03-.5.37-2.04.41-2.71.06-1.1-.29-2.49-.74-3.48-.83-1.86-2.37-3.02-4.85-3.15-5.69-.29-5.22,4.57-5.25,8.4Z"/>
            <path class="cls-11" d="M405.41,305.95c2.27,2.18,6.55,2.35,6.87,4.86l-.22,1.1s.67-1.35.84-1.82c.36-1.02-.18-3.25-1.33-4.88-2.2-3.11-7.12-4.02-9.33-1.33,0,0-2.84-.71-3.43,3.65-.4,3.01,2.4,13.7,2.4,13.7,0,0,.81-.64,1.12-1.72,1.22-4.17,2.58-11.49,3.25-14.35"/>
            <path class="cls-21" d="M403.75,308.37s0-.02,0-.03"/>
            <path class="cls-25" d="M406.74,320.22c-1.14-.22-3.11-1-4.01-2.12,0,0,.16,1.05,1.16,1.64.99.59,2.85.48,2.85.48Z"/>
            <path class="cls-11" d="M412.28,311.02c-1.6.08-8.51-.41-8.51-.41l-.34,1.91s2.35,1.14,4.22,1.29c1.86.16,2.41-.96,2.84-.98.44-.03.44.96.91,1.09s.85-.34.85-.34l.03-2.56Z"/>
          </g>
          <g>
            <path class="cls-18" d="M414.42,420.41c2.38.7,9.26-20.25,10.65-24.98,1.39-4.73,2.49-9.82-.18-10.61s-4.5,4.1-5.89,8.82c-1.39,4.73-6.96,26.07-4.58,26.77Z"/>
            <path class="cls-18" d="M412.99,419.01l-.74,2.45c-.09.35.13.71.48.8l6.67,1.67c.61.15,1.71-.75,1.27-1.2-.95-.96-2.69-2.45-3.7-3.25-.09-.08,4.02-20.58,3.02-20.85-.91-.24-7,20.37-7,20.37Z"/>
            <path class="cls-14" d="M420.49,424.2l-8.2-2.06c-.11-.03-.17-.13-.14-.24l.32-1.29c1.64.43,5.4,1.42,5.63,1.43.25,0,1.21-.63,1.39-.81.56.51,1.36,1.3,1.76,1.78.45.56-.06,1.36-.76,1.19Z"/>
          </g>
          <g>
            <path class="cls-18" d="M362.45,403.57c1.1,2.23,20.97-7.26,25.39-9.44,4.42-2.18,8.92-4.81,7.69-7.31-1.23-2.5-6.06-.54-10.48,1.63-4.42,2.18-23.7,12.89-22.6,15.11Z"/>
            <path class="cls-18" d="M362.54,401.69s-.11.07-.27.17l-1.79,1.09c-.19.12-.4,1.6-.32,2.12.27,1.86,2.06,3.92,2.64,3.72.58-.2,1.47-2.87,1.47-2.87.26-.72.59-1.23.59-1.23,0,0,17.37-11.71,16.83-12.53-.59-.9-19.15,9.54-19.15,9.54Z"/>
            <path class="cls-14" d="M360.16,405.07c-.08-.52.13-2.01.32-2.12l.94-.57.02,1.92c1.66.35,3.09,2.01,2.45,3.03h0c-.34.72-.72,1.34-1.08,1.47-.58.2-2.37-1.85-2.64-3.72Z"/>
          </g>
          <path class="cls-14" d="M393.3,359.9s-2.18,14.55-2.77,24.16c0,0-7.49,3.75-11.12,5.82-6.03,3.43-14.16,9.12-14.16,9.12l2.22,5.34s24.48-10.63,28.46-13.5c4.57-3.3,8.41-20.35,8.41-20.35h-.05s14.86,16.12,14.86,16.12l-5.94,29.32,4.63,1.21s10.14-24.79,9.9-31.28c-.23-6.12-7.63-16.62-14.02-24.82l-20.44-1.13Z"/>
          <g>
            <path class="cls-24" d="M392.38,362.9l22.55-.27-2.55-23.3c1.12-1.32,2.33-4.32,2.4-5.69.08-1.48-.91-3-1.27-4.39-.5-1.95-1.23-3.85-2.05-5.69-.43-.97-1.3-.98-2.26-1.12-.62-.09-1.24-.15-1.86-.18,2.26.78,2.64,3.98,2.29,4.21-.35.23-4.77-.07-5.58-.29s-2.1-4.26-4.24-4.7c0,0-.37-.07-.94-.02-1.57.07-3.75.74-4.68,2.08-.43.63-.67,1.37-.79,2.12-.59,3.54,1.17,6.81,2.02,10.15.94,3.71,1.52,7.65,1.33,11.49-.2,4.15-4.38,15.6-4.38,15.6Z"/>
            <path class="cls-3" d="M392.38,362.9l22.55-.27-2.55-23.3c1.12-1.32,2.33-4.32,2.4-5.69.08-1.48-.91-3-1.27-4.39-.5-1.95-1.23-3.85-2.05-5.69-.43-.97-1.3-.98-2.26-1.12-.62-.09-1.24-.15-1.86-.18,2.26.78,2.64,3.98,2.29,4.21-.35.23-4.77-.07-5.58-.29s-2.1-4.26-4.24-4.7c0,0-.37-.07-.94-.02-1.57.07-3.75.74-4.68,2.08-.43.63-.67,1.37-.79,2.12-.59,3.54,1.17,6.81,2.02,10.15.94,3.71,1.52,7.65,1.33,11.49-.2,4.15-4.38,15.6-4.38,15.6Z"/>
          </g>
          <g>
            <path class="cls-9" d="M439.82,376.42c-.87,9.35-7.04,11.52-14.33,10.84s-12.95-3.95-12.07-13.31c.87-9.35,15.23-20.56,15.23-20.56,0,0,12.04,13.67,11.17,23.03Z"/>
            <path class="cls-4" d="M428.66,353.39s-14.36,11.21-15.23,20.56c-.4,4.27.56,7.27,2.42,9.34,1.36.77,2.92,1.35,4.61,1.79,6.72,1.75,12.84.55,15.17-8.42,1.66-6.38-2.45-15.87-4.95-20.81-1.19-1.54-2.01-2.47-2.01-2.47Z"/>
            <rect class="cls-33" x="427.57" y="352.69" width="1.67" height="6.77" transform="translate(34.08 749.56) rotate(-84.67)"/>
            <polygon class="cls-9" points="434.92 349.7 423.19 348.6 425.11 354.93 431.86 355.56 434.92 349.7"/>
            <polygon class="cls-4" points="423.19 348.6 425.11 354.93 430.9 355.47 432.42 349.47 423.19 348.6"/>
            <path class="cls-33" d="M426.24,367.21c.94.46,1.32,1.33,1.21,2.51l-.02.18-1.21-.11c.06-.65-.06-1.14-.37-1.46l-.72,2.12c1.5.38,2.24,1.05,2.12,2.3v.1c-.14,1.44-1.26,2.22-3.06,2.05-.19-.02-.37-.05-.54-.07l-.45,1.32-.98-.09.53-1.54c-.95-.49-1.38-1.37-1.28-2.48v-.07s1.22.11,1.22.11c-.05.57.1,1.03.43,1.33l.76-2.24c-1.54-.41-2.13-1.12-2.03-2.24v-.09c.14-1.4,1.34-2.14,3.03-1.98.15.01.31.04.45.07l.45-1.31.98.09-.51,1.51ZM424.2,370.21l.78-2.3c-.06-.02-.13-.02-.19-.03h-.05c-.87-.09-1.58.27-1.65.99v.06c-.06.6.21,1.01,1.11,1.28ZM426,372.78v-.06c.07-.68-.3-1.07-1.19-1.33l-.83,2.44c.09.02.19.03.28.04h.05c.93.09,1.61-.3,1.68-1.08Z"/>
            <path class="cls-33" d="M438.57,365.85s-.04,0-.06,0c-1.6-.34-2.45-1.85-2.81-2.72-.21-.51-.37-1.03-.53-1.53-.2-.64-.38-1.24-.66-1.8-.58-1.17-1.55-2.11-2.74-2.66-1.18-.55-2.53-.67-3.8-.35-.28.07-.55-.1-.62-.37-.07-.28.1-.55.37-.62,1.49-.38,3.08-.23,4.48.41,1.4.64,2.54,1.76,3.23,3.13.32.64.52,1.31.72,1.95.16.5.3.98.5,1.44.23.55.9,1.86,2.08,2.11.28.06.45.33.39.61-.06.26-.29.43-.55.4Z"/>
            <path class="cls-33" d="M438.52,363s-.06,0-.09-.02c-1.14-.44-1.88-1.59-2.34-2.41-.11-.21-.22-.42-.33-.63-.4-.76-.78-1.48-1.33-2.05-.63-.65-1.5-1.09-2.58-1.3-.98-.19-2.02-.18-3.02-.17-.19,0-.34-.15-.35-.34,0-.19.15-.34.34-.35,1.04-.01,2.11-.03,3.16.18,1.2.24,2.22.75,2.94,1.49.62.63,1.04,1.43,1.44,2.21.11.21.22.41.33.61.4.73,1.05,1.75,1.98,2.1.18.07.27.27.2.44-.06.15-.2.23-.35.22Z"/>
          </g>
          <g>
            <path class="cls-18" d="M401.79,344.81c.41-.8,1.37-.93,2.59-.67-.36-3.93-1.94-10.11-2.97-13.3-1.54-4.76-3.6-8.24-5.93-7.44-2.33.8-1.82,4.81-.11,9.51,1.27,3.48,4.24,10.26,6.47,13.28-.24-.47-.28-.94-.05-1.38Z"/>
            <path class="cls-18" d="M420.59,354.38c.26-.43.54-.73.85-.93-3.33-2.54-9.53-6-11.82-7.18-1.82-.94-3.73-1.83-5.24-2.14.18,1.94.06,3.33-.57,3.55-.5.17-1.19-.43-1.97-1.49.72,1.4,3.22,2.86,5.7,4.14,2.37,1.22,9.2,4.45,13.16,5.58-.3-.52-.39-1.05-.1-1.52Z"/>
            <path class="cls-18" d="M403.81,347.68c.63-.22.75-1.61.57-3.55-1.22-.25-2.18-.13-2.59.67-.23.45-.19.91.05,1.38.78,1.06,1.48,1.66,1.97,1.49Z"/>
            <path class="cls-18" d="M425.02,355.21s0-.27.1-.27l-.53-1.7c-.45-.12-.88-.19-1.21-.19-.81,0-1.42.08-1.93.41,1.48,1.13,2.39,2.08,2.14,2.57-.23.45-1.34.33-2.89-.11.06.02.18.28.22.34.09.13.19.25.3.36.22.24.46.46.7.67.44.37.91.74,1.37,1.08.64.47,1.59.45,2.3.17.74-.29,1.47-.9,1.77-1.65.11-.28.13-.62-.02-.89-.04-.08-.1-.15-.18-.19-.1-.04-.21-.03-.31-.03-.36.02-.71-.04-1.05-.17-.18-.07-.75-.3-.78-.4Z"/>
            <path class="cls-18" d="M423.58,356.02c.25-.49-.66-1.44-2.14-2.57-.31.2-.59.5-.85.93-.29.47-.2,1,.1,1.52,1.55.44,2.66.56,2.89.11Z"/>
          </g>
        </g>
        <g>
          <g>
            <path class="cls-4" d="M315.13,385.13c9.1.47,16.1,8.22,15.63,17.32-.47,9.1-8.22,16.1-17.32,15.63-9.1-.47-16.1-8.22-15.63-17.32.47-9.1,8.22-16.1,17.32-15.63ZM328.38,402.33c.4-7.79-5.59-14.42-13.38-14.82-7.79-.4-14.42,5.59-14.82,13.38-.4,7.79,5.59,14.42,13.38,14.82,7.79.4,14.42-5.59,14.82-13.38Z"/>
            <path class="cls-28" d="M315.01,387.51c7.79.4,13.78,7.03,13.38,14.82-.4,7.79-7.03,13.78-14.82,13.38-7.79-.4-13.78-7.03-13.38-14.82.4-7.79,7.03-13.78,14.82-13.38ZM327.38,402.28c.37-7.23-5.19-13.4-12.42-13.77-7.23-.37-13.4,5.19-13.77,12.42-.37,7.23,5.19,13.4,12.42,13.77,7.23.37,13.4-5.19,13.77-12.42Z"/>
            <path class="cls-9" d="M314.95,388.51c7.23.37,12.8,6.53,12.42,13.77-.37,7.23-6.53,12.8-13.77,12.42-7.23-.37-12.8-6.53-12.42-13.77.37-7.23,6.53-12.8,13.77-12.42ZM325.59,402.18c.32-6.24-4.48-11.56-10.72-11.88s-11.56,4.48-11.88,10.72c-.32,6.24,4.48,11.56,10.72,11.88,6.24.32,11.56-4.48,11.88-10.72Z"/>
            <path class="cls-4" d="M314.86,390.3c6.24.32,11.04,5.64,10.72,11.88-.32,6.24-5.64,11.04-11.88,10.72-6.24-.32-11.04-5.64-10.72-11.88.32-6.24,5.64-11.04,11.88-10.72Z"/>
          </g>
          <path class="cls-9" d="M316.51,396.34c1.35.59,1.94,1.8,1.86,3.46v.25s-1.72-.09-1.72-.09c.05-.92-.15-1.61-.6-2.03l-.9,3.03c2.13.45,3.21,1.34,3.12,3.12v.13c-.11,2.03-1.63,3.2-4.18,3.07-.27-.01-.52-.04-.77-.07l-.55,1.89-1.39-.07.65-2.2c-1.36-.64-2.02-1.85-1.94-3.41v-.1s1.72.09,1.72.09c-.04.81.2,1.44.68,1.85l.94-3.2c-2.2-.48-3.07-1.45-2.99-3.03v-.13c.11-1.98,1.76-3.09,4.15-2.97.22.01.44.04.64.07l.55-1.87,1.39.07-.63,2.15ZM313.82,400.69l.96-3.28c-.08-.02-.18-.03-.27-.03h-.07c-1.22-.07-2.21.47-2.26,1.5v.08c-.05.86.36,1.41,1.64,1.73ZM316.5,404.21v-.08c.05-.96-.49-1.49-1.75-1.81l-1.02,3.48c.13.02.27.03.4.04h.07c1.31.07,2.25-.52,2.3-1.63Z"/>
        </g>
        <g>
          <g>
            <path class="cls-4" d="M294.01,385.13c9.1.47,16.1,8.22,15.63,17.32-.47,9.1-8.22,16.1-17.32,15.63-9.1-.47-16.1-8.22-15.63-17.32.47-9.1,8.22-16.1,17.32-15.63ZM307.27,402.33c.4-7.79-5.59-14.42-13.38-14.82-7.79-.4-14.42,5.59-14.82,13.38-.4,7.79,5.59,14.42,13.38,14.82,7.79.4,14.42-5.59,14.82-13.38Z"/>
            <path class="cls-28" d="M293.89,387.51c7.79.4,13.78,7.03,13.38,14.82-.4,7.79-7.03,13.78-14.82,13.38-7.79-.4-13.78-7.03-13.38-14.82.4-7.79,7.03-13.78,14.82-13.38ZM306.26,402.28c.37-7.23-5.19-13.4-12.42-13.77-7.23-.37-13.4,5.19-13.77,12.42-.37,7.23,5.19,13.4,12.42,13.77,7.23.37,13.4-5.19,13.77-12.42Z"/>
            <path class="cls-9" d="M293.84,388.51c7.23.37,12.8,6.53,12.42,13.77-.37,7.23-6.53,12.8-13.77,12.42-7.23-.37-12.8-6.53-12.42-13.77.37-7.23,6.53-12.8,13.77-12.42ZM304.47,402.18c.32-6.24-4.48-11.56-10.72-11.88s-11.56,4.48-11.88,10.72c-.32,6.24,4.48,11.56,10.72,11.88,6.24.32,11.56-4.48,11.88-10.72Z"/>
            <circle class="cls-4" cx="293.17" cy="401.61" r="11.32" transform="translate(-185.72 267.8) rotate(-38.26)"/>
          </g>
          <path class="cls-9" d="M295.4,396.34c1.35.59,1.94,1.8,1.86,3.46v.25s-1.72-.09-1.72-.09c.05-.92-.15-1.61-.6-2.03l-.9,3.03c2.13.45,3.21,1.34,3.12,3.12v.13c-.11,2.03-1.63,3.2-4.18,3.07-.27-.01-.52-.04-.77-.07l-.55,1.89-1.39-.07.65-2.2c-1.36-.64-2.02-1.85-1.94-3.41v-.1s1.72.09,1.72.09c-.04.81.2,1.44.68,1.85l.94-3.2c-2.2-.48-3.07-1.45-2.99-3.03v-.13c.11-1.98,1.76-3.09,4.15-2.97.22.01.44.04.64.07l.55-1.87,1.39.07-.63,2.15ZM292.7,400.69l.96-3.28c-.08-.02-.18-.03-.27-.03h-.07c-1.22-.07-2.21.47-2.26,1.5v.08c-.05.86.36,1.41,1.64,1.73ZM295.38,404.21v-.08c.05-.96-.49-1.49-1.75-1.81l-1.02,3.48c.13.02.27.03.4.04h.07c1.31.07,2.25-.52,2.3-1.63Z"/>
        </g>
        <g>
          <g>
            <path class="cls-4" d="M175.1,91.41c3.62.19,6.41,3.27,6.22,6.89-.19,3.62-3.27,6.41-6.89,6.22-3.62-.19-6.41-3.27-6.22-6.89.19-3.62,3.27-6.41,6.89-6.22ZM180.38,98.25c.16-3.1-2.22-5.74-5.32-5.9-3.1-.16-5.74,2.22-5.9,5.32-.16,3.1,2.22,5.74,5.32,5.9,3.1.16,5.74-2.22,5.9-5.32Z"/>
            <path class="cls-28" d="M175.05,92.35c3.1.16,5.48,2.8,5.32,5.9-.16,3.1-2.8,5.48-5.9,5.32-3.1-.16-5.48-2.8-5.32-5.9.16-3.1,2.8-5.48,5.9-5.32ZM179.98,98.23c.15-2.88-2.07-5.33-4.94-5.48-2.88-.15-5.33,2.07-5.48,4.94-.15,2.88,2.07,5.33,4.94,5.48,2.88.15,5.33-2.07,5.48-4.94Z"/>
            <path class="cls-9" d="M175.03,92.75c2.88.15,5.09,2.6,4.94,5.48-.15,2.88-2.6,5.09-5.48,4.94-2.88-.15-5.09-2.6-4.94-5.48.15-2.88,2.6-5.09,5.48-4.94ZM179.27,98.19c.13-2.48-1.78-4.6-4.27-4.73-2.48-.13-4.6,1.78-4.73,4.27s1.78,4.6,4.27,4.73,4.6-1.78,4.73-4.27Z"/>
            <path class="cls-4" d="M175,93.47c2.48.13,4.4,2.25,4.27,4.73-.13,2.48-2.25,4.4-4.73,4.27s-4.4-2.25-4.27-4.73,2.25-4.4,4.73-4.27Z"/>
          </g>
          <path class="cls-9" d="M175.65,95.87c.54.23.77.72.74,1.38v.1s-.69-.03-.69-.03c.02-.37-.06-.64-.24-.81l-.36,1.21c.85.18,1.28.53,1.24,1.24v.05c-.04.81-.65,1.27-1.67,1.22-.11,0-.21-.02-.31-.03l-.22.75-.55-.03.26-.88c-.54-.26-.81-.74-.77-1.36v-.04s.68.03.68.03c-.02.32.08.57.27.74l.37-1.27c-.87-.19-1.22-.58-1.19-1.21v-.05c.04-.79.7-1.23,1.65-1.18.09,0,.17.02.25.03l.22-.75.55.03-.25.86ZM174.58,97.6l.38-1.31s-.07-.01-.11-.01h-.03c-.49-.03-.88.19-.9.6v.03c-.02.34.14.56.65.69ZM175.65,99v-.03c.02-.38-.2-.59-.7-.72l-.41,1.39c.05,0,.11.01.16.01h.03c.52.03.89-.21.92-.65Z"/>
        </g>
        <g>
          <g>
            <path class="cls-4" d="M173.32,107.81c2.49.13,4.41,2.25,4.28,4.75-.13,2.49-2.25,4.41-4.75,4.28-2.49-.13-4.41-2.25-4.28-4.75.13-2.49,2.25-4.41,4.75-4.28ZM176.95,112.53c.11-2.13-1.53-3.95-3.67-4.06s-3.95,1.53-4.06,3.67,1.53,3.95,3.67,4.06c2.13.11,3.95-1.53,4.06-3.67Z"/>
            <path class="cls-28" d="M173.29,108.47c2.13.11,3.78,1.93,3.67,4.06-.11,2.13-1.93,3.78-4.06,3.67-2.13-.11-3.78-1.93-3.67-4.06s1.93-3.78,4.06-3.67ZM176.68,112.51c.1-1.98-1.42-3.67-3.41-3.77-1.98-.1-3.67,1.42-3.77,3.41-.1,1.98,1.42,3.67,3.41,3.77,1.98.1,3.67-1.42,3.77-3.41Z"/>
            <path class="cls-9" d="M173.27,108.74c1.98.1,3.51,1.79,3.41,3.77-.1,1.98-1.79,3.51-3.77,3.41-1.98-.1-3.51-1.79-3.41-3.77.1-1.98,1.79-3.51,3.77-3.41ZM176.19,112.49c.09-1.71-1.23-3.17-2.94-3.26s-3.17,1.23-3.26,2.94,1.23,3.17,2.94,3.26c1.71.09,3.17-1.23,3.26-2.94Z"/>
            <path class="cls-4" d="M173.25,109.23c1.71.09,3.03,1.55,2.94,3.26s-1.55,3.03-3.26,2.94c-1.71-.09-3.03-1.55-2.94-3.26s1.55-3.03,3.26-2.94Z"/>
          </g>
          <path class="cls-9" d="M173.7,110.89c.37.16.53.49.51.95v.07s-.47-.02-.47-.02c.01-.25-.04-.44-.17-.56l-.25.83c.58.12.88.37.86.86v.04c-.03.56-.45.88-1.15.84-.07,0-.14-.01-.21-.02l-.15.52-.38-.02.18-.6c-.37-.18-.55-.51-.53-.94v-.03s.47.02.47.02c-.01.22.05.39.19.51l.26-.88c-.6-.13-.84-.4-.82-.83v-.04c.03-.54.48-.85,1.14-.81.06,0,.12.01.17.02l.15-.51.38.02-.17.59ZM172.96,112.08l.26-.9s-.05,0-.07,0h-.02c-.34-.02-.61.13-.62.41v.02c-.01.23.1.39.45.47ZM173.7,113.04v-.02c.01-.26-.13-.41-.48-.49l-.28.95s.07,0,.11.01h.02c.36.02.62-.14.63-.45Z"/>
        </g>
        <g>
          <polygon class="cls-36" points="224.82 236.8 230.83 248.38 221.22 241.16 224.82 236.8"/>
          <polygon class="cls-36" points="229.49 252.63 215.36 248.42 215.91 255.53 229.49 252.63"/>
          <polygon class="cls-36" points="227.46 259.5 218.89 261.63 221.49 265.77 227.46 259.5"/>
        </g>
        <path class="cls-45" d="M63.38,252.93v-106.76c0-7.08,5.74-12.83,12.83-12.83h27.72"/>
        <path class="cls-45" d="M365.31,118.59h10.76c5.94,0,10.76,4.82,10.76,10.76v38.34"/>
        <path class="cls-45" d="M154.83,89.07v-2.62c0-5.1,4.14-9.24,9.24-9.24h70.76"/>
        <path class="cls-5" d="M83.65,116.27c-1.41,0-2.56,1.15-2.56,2.56s1.15,2.56,2.56,2.56,2.56-1.15,2.56-2.56-1.15-2.56-2.56-2.56ZM77.68,112.58l2.25,2.35c.97-.93,2.27-1.5,3.73-1.5,1.45,0,2.75.57,3.73,1.5l2.25-2.35c-1.55-1.49-3.66-2.41-5.98-2.41-2.32,0-4.42.92-5.98,2.41ZM83.65,96.48c-6,0-11.43,2.37-15.45,6.21l2.25,2.35c3.43-3.28,8.07-5.3,13.2-5.3,5.13,0,9.76,2.02,13.2,5.3l2.25-2.35c-4.01-3.84-9.45-6.21-15.45-6.21ZM73,107.7l2.25,2.35c2.19-2.09,5.13-3.38,8.4-3.38,3.27,0,6.21,1.29,8.4,3.38l2.25-2.35c-2.77-2.65-6.52-4.29-10.65-4.29-4.14,0-7.88,1.64-10.65,4.29Z"/>
        <g>
          <g>
            <path class="cls-5" d="M85.75,240.81h-12.41c-.48,0-.88-.39-.88-.88v-24.74c0-.48.39-.88.88-.88h18.92c.48,0,.88.39.88.88v16.52c0,.2-.07.39-.19.55l-6.51,8.22c-.17.21-.42.33-.69.33ZM74.21,239.05h11.11l6.06-7.65v-15.34h-17.17v22.99Z"/>
            <path class="cls-5" d="M85.75,240.81c-.1,0-.19-.02-.29-.05-.35-.12-.59-.46-.59-.83v-8.22c0-.48.39-.88.88-.88h6.51c.34,0,.64.19.79.5.15.3.11.66-.1.93l-6.51,8.22c-.17.21-.43.33-.69.33ZM86.63,232.59v4.82l3.82-4.82h-3.82Z"/>
          </g>
          <rect class="cls-5" x="76.79" y="218.73" width="12.21" height="1.76"/>
          <rect class="cls-5" x="76.79" y="222.08" width="12.21" height="1.76"/>
          <rect class="cls-5" x="76.79" y="225.43" width="9.67" height="1.76"/>
        </g>
        <g>
          <g>
            <path class="cls-5" d="M85.75,201.08h-12.41c-.48,0-.88-.39-.88-.88v-24.74c0-.49.39-.88.88-.88h18.92c.48,0,.88.39.88.88v16.52c0,.2-.07.39-.19.55l-6.51,8.22c-.17.21-.42.33-.69.33ZM74.21,199.33h11.11l6.06-7.65v-15.34h-17.17v22.99Z"/>
            <path class="cls-5" d="M85.75,201.08c-.1,0-.19-.02-.29-.05-.35-.12-.59-.46-.59-.83v-8.22c0-.49.39-.88.88-.88h6.51c.34,0,.64.19.79.5.15.3.11.66-.1.93l-6.51,8.22c-.17.21-.43.33-.69.33ZM86.63,192.87v4.82l3.82-4.82h-3.82Z"/>
          </g>
          <rect class="cls-5" x="76.79" y="179.01" width="12.21" height="1.76"/>
          <rect class="cls-5" x="76.79" y="182.35" width="12.21" height="1.76"/>
          <rect class="cls-5" x="76.79" y="185.7" width="9.67" height="1.76"/>
        </g>
        <g>
          <path class="cls-5" d="M392.98,97.38c-.1-1.6-.55-3.13-1.32-4.5l1.3-.73c-.65-1.17-1.5-2.24-2.52-3.14l-.99,1.12c-1.15-1.02-2.53-1.81-4.11-2.26l.41-1.43h-.02c-1.09-.31-2.2-.46-3.28-.46-.24,0-.47,0-.71.02l.09,1.49c-1.6.09-3.13.55-4.5,1.31l-.73-1.31c-1.17.65-2.24,1.5-3.14,2.52l1.12.99c-1.02,1.15-1.81,2.53-2.26,4.1l-1.43-.41v.03c-.32,1.09-.47,2.2-.47,3.28,0,.23,0,.46.02.7l1.49-.09c.09,1.6.55,3.13,1.31,4.5l-1.31.73c.65,1.17,1.5,2.24,2.51,3.14l1-1.12c1.15,1.02,2.53,1.81,4.1,2.26l-.41,1.43h.04c1.09.32,2.2.47,3.28.47.24,0,.48,0,.72-.02l-.09-1.49c1.6-.1,3.13-.56,4.5-1.32l.73,1.3c1.17-.65,2.24-1.51,3.14-2.52l-1.12-.99c1.02-1.15,1.81-2.53,2.26-4.11l1.43.41h0c.31-1.1.46-2.2.46-3.29,0-.24,0-.48-.02-.72l-1.49.09ZM379.85,107.25h0l.07-.26-.07.26ZM388.6,99.75c-.79,2.81-3.35,4.64-6.13,4.64-.57,0-1.16-.08-1.74-.24-2.81-.79-4.64-3.35-4.64-6.13,0-.57.08-1.16.24-1.74.79-2.81,3.35-4.64,6.13-4.64.57,0,1.16.08,1.74.24,2.81.79,4.64,3.35,4.64,6.13,0,.57-.08,1.16-.24,1.74Z"/>
          <path class="cls-5" d="M411.29,92.84l-.99.19c-.15-.77-.42-1.51-.8-2.19l.88-.49c-.64-1.15-1.54-2.16-2.66-2.92l-.56.83c-.63-.43-1.34-.77-2.11-.99l.28-.96h-.04c-.77-.23-1.55-.33-2.31-.33-.54,0-1.07.05-1.59.15l.19.99c-.77.15-1.51.41-2.19.79l-.49-.88c-1.15.64-2.16,1.54-2.92,2.66l.83.57c-.43.63-.77,1.34-1,2.11l-.96-.28-.02.07c-.22.77-.32,1.55-.32,2.31,0,.53.05,1.06.15,1.57l.99-.19c.15.77.41,1.51.78,2.2l-.88.48h0c.63,1.16,1.53,2.17,2.65,2.93l.57-.83c.63.43,1.34.77,2.11,1l-.28.96h0l.09.03c.77.22,1.55.32,2.31.32.55,0,1.1-.05,1.64-.16l-.2-.99c.77-.15,1.51-.42,2.19-.8l.49.88c1.15-.64,2.15-1.55,2.91-2.67l-.84-.56c.43-.63.77-1.34.99-2.11l.96.27v-.02c.22-.77.33-1.55.33-2.31,0-.55-.05-1.09-.16-1.61ZM402.98,99.51c-.45,0-.91-.06-1.38-.19-2.22-.63-3.67-2.65-3.67-4.85,0-.45.06-.91.19-1.38.63-2.22,2.65-3.67,4.85-3.67.45,0,.92.06,1.38.19,2.22.63,3.67,2.65,3.67,4.85,0,.45-.06.92-.19,1.38-.63,2.22-2.65,3.67-4.85,3.67Z"/>
        </g>
        <path class="cls-5" d="M406.5,142.66c-4.06,0-7.36,3.29-7.36,7.36,0,7.3,7.36,16.21,7.36,16.21,0,0,7.36-8.91,7.36-16.21,0-4.06-3.3-7.36-7.36-7.36ZM406.5,153.9c-2.15,0-3.89-1.74-3.89-3.89s1.74-3.89,3.89-3.89,3.89,1.74,3.89,3.89-1.75,3.89-3.89,3.89Z"/>
        <g>
          <g>
            <path class="cls-15" d="M172.72,95.6v24.19h-48.29v-24.19h48.29ZM170.37,118.19v-21h-43.58v21h43.58Z"/>
            <polygon class="cls-15" points="170.37 97.68 170.37 118.19 126.79 118.19 126.79 117.71 127.29 117.71 129.47 117.71 167.69 117.71 169.87 117.71 169.87 115.94 169.87 99.46 169.87 97.68 170.37 97.68"/>
            <polygon class="cls-15" points="170.37 97.2 170.37 97.68 169.87 97.68 167.69 97.68 129.47 97.68 127.29 97.68 127.29 99.46 127.29 115.94 127.29 117.71 126.79 117.71 126.79 97.2 170.37 97.2"/>
            <path class="cls-15" d="M169.87,115.94v1.77h-2.18c0-.98.98-1.77,2.18-1.77Z"/>
            <path class="cls-29" d="M169.87,99.46v16.48c-1.2,0-2.18.79-2.18,1.77h-38.22c0-.98-.97-1.77-2.18-1.77v-16.48c1.2,0,2.18-.79,2.18-1.77h38.22c0,.98.98,1.77,2.18,1.77ZM164.35,107.7c0-1.21-.74-2.18-1.66-2.18s-1.66.98-1.66,2.18.74,2.19,1.66,2.19,1.66-.98,1.66-2.19ZM159.04,107.7c0-3.67-4.68-6.64-10.46-6.64s-10.46,2.97-10.46,6.64,4.68,6.64,10.46,6.64,10.46-2.97,10.46-6.64ZM136.13,107.7c0-1.21-.74-2.18-1.66-2.18s-1.66.98-1.66,2.18.74,2.19,1.66,2.19,1.66-.98,1.66-2.19Z"/>
            <path class="cls-15" d="M169.87,97.68v1.77c-1.2,0-2.18-.79-2.18-1.77h2.18Z"/>
            <path class="cls-15" d="M162.69,105.51c.92,0,1.66.98,1.66,2.18s-.74,2.19-1.66,2.19-1.66-.98-1.66-2.19.74-2.18,1.66-2.18Z"/>
            <path class="cls-15" d="M148.58,101.06c5.77,0,10.46,2.97,10.46,6.64s-4.68,6.64-10.46,6.64-10.46-2.97-10.46-6.64,4.68-6.64,10.46-6.64Z"/>
            <path class="cls-15" d="M134.47,105.51c.92,0,1.66.98,1.66,2.18s-.74,2.19-1.66,2.19-1.66-.98-1.66-2.19.74-2.18,1.66-2.18Z"/>
            <path class="cls-15" d="M127.29,97.68h2.18c0,.98-.97,1.77-2.18,1.77v-1.77Z"/>
            <path class="cls-15" d="M129.47,117.71h-2.18v-1.77c1.2,0,2.18.79,2.18,1.77Z"/>
          </g>
          <path class="cls-29" d="M150.05,104.4c1.04.32,1.53,1.04,1.53,2.06v.15h-1.29c0-.57-.18-.98-.53-1.23l-.56,1.89c1.62.21,2.47.72,2.47,1.81v.08c0,1.25-1.1,2.01-3.03,2.01-.2,0-.39-.01-.58-.02l-.34,1.17h-1.05l.41-1.37c-1.05-.35-1.6-1.07-1.6-2.03v-.06h1.29c0,.49.2.88.58,1.11l.58-1.99c-1.67-.23-2.37-.79-2.37-1.76v-.08c0-1.22,1.2-1.95,3-1.95.16,0,.33.01.48.02l.34-1.16h1.05l-.39,1.34ZM148.19,107.15l.59-2.04c-.06-.01-.14-.01-.2-.01h-.05c-.92,0-1.65.36-1.65.99v.05c0,.53.33.85,1.3,1.01ZM150.34,109.22v-.05c0-.59-.43-.9-1.39-1.05l-.63,2.16c.1.01.2.01.3.01h.05c.99,0,1.67-.39,1.67-1.07Z"/>
        </g>
        <g>
          <g>
            <path class="cls-15" d="M164.03,90.93v24.19h-48.29v-24.19h48.29ZM161.68,113.52v-21h-43.58v21h43.58Z"/>
            <polygon class="cls-15" points="161.68 93.01 161.68 113.52 118.1 113.52 118.1 113.03 118.6 113.03 120.77 113.03 159 113.03 161.18 113.03 161.18 111.26 161.18 94.78 161.18 93.01 161.68 93.01"/>
            <polygon class="cls-15" points="161.68 92.52 161.68 93.01 161.18 93.01 159 93.01 120.77 93.01 118.6 93.01 118.6 94.78 118.6 111.26 118.6 113.03 118.1 113.03 118.1 92.52 161.68 92.52"/>
            <path class="cls-15" d="M161.18,111.26v1.77h-2.18c0-.98.98-1.77,2.18-1.77Z"/>
            <path class="cls-29" d="M161.18,94.78v16.48c-1.2,0-2.18.79-2.18,1.77h-38.22c0-.98-.97-1.77-2.18-1.77v-16.48c1.2,0,2.18-.79,2.18-1.77h38.22c0,.98.98,1.77,2.18,1.77ZM155.66,103.02c0-1.21-.74-2.18-1.66-2.18s-1.66.98-1.66,2.18.74,2.19,1.66,2.19,1.66-.98,1.66-2.19ZM150.34,103.02c0-3.67-4.68-6.64-10.46-6.64s-10.46,2.97-10.46,6.64,4.68,6.64,10.46,6.64,10.46-2.97,10.46-6.64ZM127.43,103.02c0-1.21-.74-2.18-1.66-2.18s-1.66.98-1.66,2.18.74,2.19,1.66,2.19,1.66-.98,1.66-2.19Z"/>
            <path class="cls-15" d="M161.18,93.01v1.77c-1.2,0-2.18-.79-2.18-1.77h2.18Z"/>
            <path class="cls-15" d="M154,100.84c.92,0,1.66.98,1.66,2.18s-.74,2.19-1.66,2.19-1.66-.98-1.66-2.19.74-2.18,1.66-2.18Z"/>
            <path class="cls-15" d="M139.89,96.38c5.77,0,10.46,2.97,10.46,6.64s-4.68,6.64-10.46,6.64-10.46-2.97-10.46-6.64,4.68-6.64,10.46-6.64Z"/>
            <path class="cls-15" d="M125.77,100.84c.92,0,1.66.98,1.66,2.18s-.74,2.19-1.66,2.19-1.66-.98-1.66-2.19.74-2.18,1.66-2.18Z"/>
            <path class="cls-15" d="M118.6,93.01h2.18c0,.98-.97,1.77-2.18,1.77v-1.77Z"/>
            <path class="cls-15" d="M120.77,113.03h-2.18v-1.77c1.2,0,2.18.79,2.18,1.77Z"/>
          </g>
          <path class="cls-29" d="M141.36,99.73c1.04.32,1.53,1.04,1.53,2.06v.15h-1.29c0-.57-.18-.98-.53-1.23l-.56,1.89c1.62.21,2.47.72,2.47,1.81v.08c0,1.25-1.1,2.01-3.03,2.01-.2,0-.39-.01-.58-.02l-.34,1.17h-1.05l.41-1.37c-1.05-.35-1.6-1.07-1.6-2.03v-.06h1.29c0,.49.2.88.58,1.11l.58-1.99c-1.67-.23-2.37-.79-2.37-1.76v-.08c0-1.22,1.2-1.95,3-1.95.16,0,.33.01.48.02l.34-1.16h1.05l-.39,1.34ZM139.5,102.48l.6-2.04c-.06-.01-.14-.01-.2-.01h-.05c-.92,0-1.65.36-1.65.99v.05c0,.53.33.85,1.3,1.01ZM141.65,104.55v-.05c0-.59-.43-.9-1.39-1.05l-.63,2.16c.1.01.2.01.3.01h.05c.99,0,1.67-.39,1.67-1.07Z"/>
        </g>
        <g>
          <circle class="cls-5" cx="355.52" cy="163.14" r="2.79"/>
          <circle class="cls-5" cx="365.86" cy="163.14" r="2.79"/>
          <circle class="cls-5" cx="376.21" cy="163.14" r="2.79"/>
        </g>
      </g>
    </g>
  </g>
</svg>